<svg width="57" height="60" viewBox="0 0 57 60" fill="none" xmlns="http://www.w3.org/2000/svg">
<path d="M39.6934 14.3288C38.3289 17.1281 37.9424 19.5469 37.938 19.5712L36.1594 19.2844C36.1736 19.1944 36.4533 17.4234 37.3813 15.0938C35.5359 15.7444 33.9293 17.6316 32.5978 20.7703C30.4407 25.8713 29.8635 32.3409 29.8573 32.4066L28.0636 32.2453C28.085 31.9931 28.5757 26.5294 30.3855 21.4884C24.5376 23.4966 20.7373 38.9709 19.3649 47.0897C26.8915 42.0356 37.0598 32.9062 43.3102 17.8875L44.9677 18.6094C38.8473 33.3178 29.0709 42.5344 21.4658 47.8678C41.1576 46.7803 45.0683 39.8278 45.7478 36.1922C44.2677 37.4011 42.7252 38.5228 41.1273 39.5522L40.161 37.9969C42.5193 36.4669 44.5295 34.9341 46.1371 33.4406C51.8771 28.1091 51.7596 24.1519 51.0791 22.1438C50.1245 24.0293 48.9658 25.7923 47.6262 27.3975L46.2573 26.2003C47.8709 24.272 49.2019 22.1009 50.2063 19.7587C52.8595 13.5816 52.6333 7.69875 52.4418 5.625C45.2794 5.94 41.5628 10.4897 39.6934 14.3288ZM13.0031 50.8472C13.9374 50.3606 14.8565 49.8937 15.7614 49.3575C16.5915 47.4412 16.9887 44.8603 15.3535 41.9728L13.7949 42.9103C15.8059 46.4606 13.8421 49.5272 12.8295 50.7525H12.9711C12.9809 50.7525 12.9933 50.85 13.0031 50.8472ZM12.6905 50.7525L12.4296 51.1078L12.45 51.18C12.5427 51.0834 12.6736 50.9391 12.8277 50.7525H12.6905ZM13.5927 52.7109C14.8636 52.4597 19.9838 51.6478 20.9012 54.7069L22.6237 54.1669C21.9201 51.8184 19.7576 50.8181 17.2826 50.6213C16.0761 51.3627 14.8454 52.0597 13.5927 52.7109Z" fill="#EEECE3"/>
<path d="M13.5927 52.7108C13.5571 52.7183 13.4547 52.7267 13.4235 52.7324C13.4547 52.7267 13.5277 52.7183 13.5633 52.7108C13.6025 52.6911 13.6551 52.6724 13.6943 52.6517C14.9094 52.0176 16.1038 51.3404 17.2755 50.6211C17.2778 50.6211 17.2802 50.6211 17.2826 50.6211C17.7154 50.3567 18.1536 50.0952 18.5767 49.8214C18.6488 49.7755 18.7254 49.7624 18.7975 49.7146C18.9071 49.6433 19.0175 49.5524 19.128 49.4567L18.729 49.7099L18.6069 49.7727L18.1964 48.9496L18.1759 48.9092L18.1964 48.9467L18.6069 49.7671L18.729 49.6958C18.8946 49.5927 19.0603 49.4811 19.2259 49.3742L19.128 49.4586C19.331 49.3321 19.5341 49.2074 19.7389 49.0724L20.0284 48.9111C19.9758 48.9111 19.9233 48.9702 19.8707 48.9861L20.0302 48.9102H20.0319C20.0542 48.9102 20.0774 48.8511 20.1005 48.8352L19.5929 48.0589L19.5314 47.9596L19.2856 47.5874L19.0852 47.2855C18.8412 47.4561 18.5927 47.6183 18.3451 47.7852C18.1723 47.9024 17.9995 48.0233 17.8276 48.1349L17.7974 48.1536C17.7878 48.1599 17.778 48.1658 17.768 48.1714C17.6237 48.2661 17.4714 48.3514 17.3253 48.4452C16.8092 48.7757 16.2881 49.0976 15.7623 49.4108C14.8574 49.9471 13.9392 50.3642 13.004 50.8499C12.9942 50.8517 12.9818 50.7542 12.9711 50.7542H12.6914L12.6175 51.0927C12.6184 51.0899 12.7903 51.1836 12.7903 51.1836C12.7903 51.1939 12.597 51.208 12.5872 51.2183L12.4981 51.2249L12.4723 51.2446C12.475 51.2436 12.4563 51.2324 12.459 51.2221L12.4607 51.2361C12.4545 51.2399 12.442 51.2436 12.4349 51.2464L12.7404 51.5586L13.6925 52.5271L12.6166 51.5586L12.369 51.2464C11.5371 51.6701 10.6955 52.0724 9.84497 52.453C10.8977 50.5274 11.8498 47.7655 10.9315 44.938L9.22153 45.5183C10.4087 49.1746 7.40733 52.9911 6.82041 53.6905C6.76163 53.7608 6.71798 53.8096 6.71442 53.8142L8.02453 55.0611C8.02241 55.0642 8.02002 55.067 8.01741 55.0696L6.70641 53.8142C6.70997 53.8105 6.75628 53.7608 6.81595 53.6905C5.35533 54.2211 4.47094 54.4621 4.45312 54.4667L4.90734 56.2499C5.06053 56.2096 8.67736 55.2327 13.5927 52.7108Z" fill="#EEECE3"/>
<path d="M20.0289 48.9092L20.0266 48.9104L20.0313 48.9092H20.0289Z" fill="#EEECE3"/>
</svg>
