<svg width="44" height="44" viewBox="0 0 44 44" fill="none" xmlns="http://www.w3.org/2000/svg">
<path d="M42.9403 40.6415H39.8034V37.358C39.8034 37.2192 39.7482 37.0861 39.6501 36.9879C39.5519 36.8897 39.4187 36.8346 39.2799 36.8345H38.0989V34.7781C38.0988 34.6393 38.0436 34.5061 37.9455 34.408C37.8473 34.3098 37.7142 34.2546 37.5753 34.2546H36.9178V22.6743H37.5753C37.7142 22.6743 37.8473 22.6191 37.9455 22.5209C38.0436 22.4228 38.0988 22.2896 38.0989 22.1508V20.0944H38.3292C38.468 20.0944 38.6012 20.0392 38.6993 19.941C38.7975 19.8428 38.8527 19.7097 38.8527 19.5709V16.7941C38.8527 16.6553 38.7975 16.5222 38.6993 16.424C38.6012 16.3258 38.468 16.2707 38.3292 16.2706H36.1723C36.0549 8.55609 29.7434 2.31152 21.9995 2.31152C14.2556 2.31152 7.94409 8.55609 7.82678 16.2707H5.66984C5.531 16.2707 5.39787 16.3259 5.29969 16.4241C5.20152 16.5223 5.14635 16.6554 5.1463 16.7942V19.571C5.14635 19.7098 5.20152 19.8429 5.29969 19.9411C5.39787 20.0393 5.531 20.0944 5.66984 20.0945H5.90015V22.1509C5.90019 22.2897 5.95537 22.4229 6.05354 22.521C6.15171 22.6192 6.28484 22.6744 6.42368 22.6744H7.08119V34.2547H6.42368C6.28484 34.2547 6.15171 34.3099 6.05354 34.4081C5.95537 34.5062 5.90019 34.6394 5.90015 34.7782V36.8346H4.71919C4.58036 36.8346 4.44722 36.8898 4.34905 36.988C4.25088 37.0862 4.19571 37.2193 4.19566 37.3581V40.6416H1.05869C0.76968 40.6416 0.535156 40.8761 0.535156 41.1652C0.535156 41.4542 0.76968 41.6887 1.05869 41.6887H42.9402C43.0779 41.6869 43.2094 41.631 43.3062 41.533C43.4029 41.435 43.4572 41.3029 43.4572 41.1652C43.4572 41.0274 43.403 40.8953 43.3062 40.7973C43.2095 40.6993 43.078 40.6433 42.9403 40.6415ZM22.523 3.39623C26.1751 3.88624 29.0734 9.45233 29.132 16.2706H22.523V3.39623ZM21.476 3.39623V16.2706H14.867C14.9257 9.45233 17.8239 3.88624 21.476 3.39623ZM6.19337 19.0474V17.3177C19.072 17.3219 23.2601 17.3219 24.1773 17.3219C26.1625 17.3177 30.1915 17.3177 37.8056 17.3177V19.0474H6.19337ZM35.8707 22.6785V34.2546H31.9548V22.6785H35.8707ZM21.9995 25.426C19.9055 25.426 18.2008 27.1305 18.2008 29.2247V36.8345H14.2724V34.7781C14.2727 34.7093 14.2594 34.641 14.2332 34.5774C14.207 34.5137 14.1684 34.4559 14.1197 34.4072C14.0711 34.3585 14.0132 34.32 13.9496 34.2938C13.8859 34.2676 13.8177 34.2542 13.7488 34.2546H13.0913V22.6743H13.7488C13.8177 22.6747 13.8859 22.6613 13.9496 22.6351C14.0132 22.609 14.0711 22.5704 14.1197 22.5217C14.1684 22.473 14.207 22.4152 14.2332 22.3515C14.2594 22.2879 14.2727 22.2196 14.2724 22.1508V20.0944H29.7267V22.1508C29.7263 22.2196 29.7397 22.2879 29.7658 22.3515C29.792 22.4152 29.8306 22.473 29.8793 22.5217C29.9279 22.5704 29.9858 22.609 30.0495 22.6351C30.1131 22.6613 30.1814 22.6747 30.2502 22.6743H30.9077V34.2546H30.2502C30.1814 34.2542 30.1131 34.2676 30.0495 34.2938C29.9858 34.32 29.9279 34.3585 29.8793 34.4072C29.8306 34.4559 29.792 34.5137 29.7658 34.5774C29.7397 34.641 29.7263 34.7093 29.7267 34.7781V36.8345H25.7982V29.2247C25.7982 27.1305 24.0935 25.426 21.9995 25.426ZM12.0442 22.6785V34.2546H8.12834V22.6785H12.0442ZM38.7564 40.6415H5.24264V37.8816H38.7563V40.6415H38.7564Z" fill="#EEECE3"/>
</svg>
