<svg width="51" height="51" viewBox="0 0 51 51" fill="none" xmlns="http://www.w3.org/2000/svg">
<path fill-rule="evenodd" clip-rule="evenodd" d="M4.27113 37.7308C2.81345 35.1663 3.95836 31.5054 6.96417 27.647C7.51651 26.9381 8.13279 26.2204 8.80834 25.5C8.13289 24.7797 7.51651 24.0619 6.96417 23.353C4.9941 20.8241 2.41591 16.4413 4.28229 13.248C5.76836 10.7054 9.50302 9.84121 14.3725 10.5185C15.2624 10.6424 16.1921 10.8174 17.1537 11.0423C17.3319 10.4521 17.5267 9.86699 17.738 9.28778C18.0715 9.51214 18.4422 9.67554 18.8328 9.77038C18.6458 10.2868 18.4724 10.808 18.3128 11.3335C20.5858 11.9432 23.0131 12.8167 25.5018 13.9409C27.9904 12.8166 30.4176 11.9432 32.6906 11.3335C32.4196 10.4443 32.124 9.60414 31.8058 8.81981C30.1445 4.72447 27.9118 2.19141 25.5017 2.19141C24.2807 2.19141 23.1053 2.84196 22.0266 4.01595C21.7403 3.73535 21.4069 3.50726 21.0417 3.34209C22.3825 1.8368 23.893 0.996094 25.5017 0.996094C28.4475 0.996094 31.0638 3.81464 32.9123 8.37167C33.2502 9.2045 33.5635 10.0971 33.8496 11.0423C34.8113 10.8174 35.7408 10.6424 36.6308 10.5185C41.5003 9.84111 45.2612 10.6903 46.7322 13.2692C48.1938 15.8315 47.045 19.4946 44.0392 23.353C43.4868 24.0619 42.8706 24.7796 42.195 25.5C42.6174 25.9497 43.0269 26.4114 43.4231 26.8843C43.0629 27.0604 42.7367 27.2988 42.4596 27.5886C42.1057 27.1683 41.7408 26.7574 41.3655 26.3561C39.7011 28.0202 37.7315 29.6858 35.5144 31.2788C35.2434 33.9965 34.7857 36.5359 34.1767 38.8102C35.0815 39.0199 35.9563 39.1836 36.7943 39.3002C39.4247 39.666 44.1205 39.8725 45.6892 37.1543C46.2998 36.0963 46.3242 34.7526 45.8462 33.2307C46.2311 33.1232 46.5943 32.9492 46.9193 32.7166C47.4564 34.34 47.6146 36.2147 46.7201 37.7513C45.2384 40.2965 41.5003 41.1588 36.6308 40.4813C35.7409 40.3575 34.8113 40.1825 33.8496 39.9576C33.5636 40.9028 33.2502 41.7955 32.9123 42.6282C31.0638 47.1852 28.4474 50.0038 25.5017 50.0038C22.5559 50.0038 19.9396 47.1853 18.0909 42.6282C17.7531 41.7954 17.4398 40.9028 17.1537 39.9576C16.5535 40.0985 15.9494 40.2223 15.3421 40.3289C15.3698 39.9284 15.3264 39.5262 15.2137 39.1408C15.7542 39.0446 16.2921 38.9343 16.8268 38.81C16.2177 36.5358 15.76 33.9963 15.489 31.2786C13.2719 29.6856 11.3023 28.02 9.63799 26.3559C9.00308 27.0354 8.42325 27.7118 7.90279 28.3798C5.1971 31.853 4.11166 35.0457 5.30717 37.1424C5.91907 38.2156 7.07723 38.9052 8.63472 39.2523C8.53503 39.64 8.50405 40.0422 8.54318 40.4406C6.56952 40.0322 5.07777 39.1496 4.27113 37.7305V37.7308ZM31.9925 22.4974C32.0363 22.2648 31.9953 22.0243 31.877 21.8193C31.7587 21.6144 31.5708 21.4586 31.3476 21.3803C29.1229 20.5862 26.577 20.7368 24.371 22.0105C22.1651 23.2841 20.7616 25.4135 20.337 27.7372C20.3333 27.7577 20.3302 27.7782 20.3278 27.7989L18.6047 28.7937C18.4679 28.873 18.3682 29.0033 18.3274 29.1561C18.2867 29.3089 18.3083 29.4716 18.3876 29.6085C18.4668 29.7453 18.5972 29.8451 18.75 29.8858C18.9028 29.9265 19.0655 29.9049 19.2024 29.8256L20.924 28.8316C20.9431 28.8397 20.9624 28.8474 20.9821 28.8543C23.2068 29.6485 25.7526 29.4977 27.9585 28.2241C30.1645 26.9505 31.568 24.8211 31.9925 22.4974ZM46.8471 31.055C47.4594 29.9945 47.096 28.6384 46.0355 28.0262C44.975 27.4139 43.6189 27.7773 43.0066 28.8378C42.3943 29.8983 42.7577 31.2543 43.8182 31.8666C44.8788 32.4789 46.2349 32.1156 46.8471 31.055ZM19.6395 4.23688C18.415 4.23688 17.4222 5.22959 17.4222 6.45419C17.4222 7.67879 18.4149 8.67149 19.6395 8.67149C20.8641 8.67149 21.8568 7.67879 21.8568 6.45419C21.8568 5.22959 20.8641 4.23688 19.6395 4.23688ZM10.0182 41.2084C10.6305 42.2689 11.9866 42.6323 13.047 42.02C14.1075 41.4077 14.4708 40.0516 13.8586 38.9912C13.2463 37.9308 11.8903 37.5674 10.8298 38.1796C9.76927 38.7919 9.406 40.148 10.0182 41.2084ZM9.63789 24.644C11.3023 22.9799 13.2718 21.3143 15.4889 19.7213C15.76 17.0036 16.2176 14.4642 16.8267 12.19C15.9218 11.9803 15.047 11.8166 14.2091 11.7C11.5789 11.3342 6.8816 11.1272 5.31315 13.8453C4.10847 15.9331 5.18664 19.1339 7.90259 22.6202C8.42295 23.2882 9.00288 23.9646 9.63779 24.6441L9.63789 24.644ZM32.6906 39.6667C30.4176 39.057 27.9902 38.1835 25.5016 37.0593C23.013 38.1836 20.5857 39.057 18.3128 39.6667C18.5837 40.556 18.8794 41.396 19.1976 42.1804C20.8589 46.2757 23.0915 48.8088 25.5017 48.8088C27.9118 48.8088 30.1445 46.2757 31.8058 42.1804C32.1239 41.3961 32.4197 40.556 32.6906 39.6667ZM24.0714 36.3884C21.5625 35.1688 19.0999 33.7486 16.7896 32.1856C17.0608 34.4607 17.4669 36.5913 17.985 38.521C19.9162 38.0049 21.9651 37.2911 24.0714 36.3884ZM26.932 14.6119C29.4408 15.8315 31.9036 17.2518 34.2138 18.8147C33.9427 16.5396 33.5366 14.409 33.0184 12.4793C31.0872 12.9954 29.0382 13.7092 26.932 14.6119ZM45.6962 13.8575C44.4926 11.753 41.1727 11.0909 36.7942 11.7C35.9563 11.8166 35.0814 11.9803 34.1766 12.19C34.7857 14.4642 35.2433 17.0037 35.5143 19.7214C37.7314 21.3144 39.7011 22.98 41.3654 24.6441C42.0003 23.9646 42.5801 23.2882 43.1006 22.6202C45.8063 19.147 46.8945 15.9526 45.6962 13.8575ZM40.5378 25.5002C39.1256 24.0867 37.4836 22.6697 35.6489 21.2974C35.7462 22.6628 35.7971 24.0672 35.7971 25.5002C35.7971 26.9332 35.7462 28.3376 35.6489 29.703C37.4836 28.3306 39.1258 26.9138 40.5379 25.5002H40.5378ZM34.3762 20.3745C31.5986 18.4216 28.582 16.6786 25.5016 15.25C22.4226 16.678 19.4034 18.4224 16.627 20.3744C16.4794 22.0239 16.4014 23.7391 16.4014 25.5C16.4014 27.2609 16.4793 28.9761 16.6269 30.6256C19.4043 32.5783 22.4213 34.3217 25.5014 35.75C28.5806 34.322 31.5995 32.5777 34.376 30.6255C34.5236 28.976 34.6016 27.2609 34.6016 25.4999C34.6016 23.7389 34.5237 22.0238 34.3761 20.3743L34.3762 20.3745ZM24.0714 14.6118C21.965 13.709 19.916 12.9953 17.9847 12.4792C17.4666 14.4089 17.0606 16.5395 16.7894 18.8146C19.1143 17.2433 21.5477 15.8389 24.0713 14.6118H24.0714ZM10.4653 25.5C11.8775 26.9136 13.5196 28.3305 15.3543 29.7029C15.257 28.3375 15.2061 26.9331 15.2061 25.5001C15.2061 24.0671 15.257 22.6627 15.3543 21.2973C13.5196 22.6697 11.8774 24.0865 10.4652 25.5001L10.4653 25.5ZM26.9318 36.3884C29.0381 37.2912 31.0872 38.0049 33.0185 38.521C33.5366 36.5913 33.9426 34.4607 34.2137 32.1856C31.8888 33.7569 29.4555 35.1614 26.9319 36.3884H26.9318Z" fill="#EEECE3"/>
</svg>
