<svg width="57" height="57" viewBox="0 0 57 57" fill="none" xmlns="http://www.w3.org/2000/svg">
<path d="M11.8809 25.4542C12.1913 24.5081 12.7589 23.667 13.5203 23.0253C14.2816 22.3835 15.2066 21.9663 16.1916 21.8205L21.2503 21.0902L19.3087 20.8052L16.7081 15.5327C16.4053 14.927 15.7819 14.5352 15.105 14.5352C14.4281 14.5352 13.8047 14.927 13.5019 15.5327L10.9012 20.8052L5.09437 21.6602C4.76556 21.7059 4.45615 21.8429 4.20126 22.0556C3.94637 22.2683 3.7562 22.5482 3.65233 22.8635C3.54846 23.1788 3.53506 23.5169 3.61363 23.8395C3.69221 24.162 3.85962 24.4561 4.09687 24.6883L8.31843 28.803L7.32093 34.592C7.19625 35.2511 7.48125 35.928 8.01562 36.3377C8.59453 36.726 9.29278 36.7937 9.90375 36.4623L15.105 33.737L16.9753 34.7167L16.9931 34.6098L13.2347 30.9405C12.5206 30.2427 12.0156 29.3595 11.7764 28.3902C11.5372 27.4209 11.5734 26.404 11.8809 25.4542ZM53.3484 22.8714C53.2458 22.5545 53.056 22.2729 52.8009 22.0587C52.5457 21.8445 52.2355 21.7064 51.9056 21.6602L46.0987 20.8052L43.4981 15.5327C42.8925 14.3214 40.8975 14.3214 40.2919 15.5327L37.6912 20.8052L35.7497 21.0902L40.8084 21.8205C42.8212 22.1233 44.4956 23.5305 45.1191 25.4542C45.4266 26.404 45.4628 27.4209 45.2236 28.3902C44.9844 29.3595 44.4794 30.2427 43.7653 30.9405L40.0069 34.6098L40.0247 34.7167L41.895 33.737L47.0962 36.4623C47.7072 36.7937 48.4055 36.726 48.9844 36.3377C49.5187 35.928 49.8037 35.2511 49.6791 34.592L48.6816 28.803L52.9031 24.6883C53.3841 24.2252 53.5622 23.5127 53.3484 22.8714Z" fill="#EEECE3"/>
<path d="M36.1807 33.3592L41.2805 28.3896C41.5187 28.1575 41.6871 27.8634 41.7668 27.5405C41.8465 27.2176 41.8342 26.8789 41.7313 26.5627C41.6284 26.2464 41.4391 25.9653 41.1847 25.7511C40.9303 25.5369 40.621 25.3983 40.2919 25.3507L33.247 24.3283L30.096 17.9443C29.4993 16.7295 27.5007 16.7295 26.904 17.9443L23.753 24.3283L16.7081 25.3507C16.3794 25.3989 16.0706 25.5379 15.8166 25.7522C15.5627 25.9664 15.3736 26.2474 15.2708 26.5634C15.168 26.8793 15.1556 27.2178 15.2349 27.5404C15.3141 27.8631 15.482 28.1572 15.7195 28.3896L20.8175 33.3592L19.6151 40.3756C19.5592 40.7029 19.596 41.0394 19.7212 41.3469C19.8464 41.6545 20.055 41.921 20.3236 42.1162C20.5922 42.3115 20.9101 42.4277 21.2413 42.4519C21.5725 42.4761 21.9038 42.4072 22.1979 42.253L28.5 38.9381L34.8003 42.2512C35.0946 42.4045 35.4258 42.4726 35.7566 42.4481C36.0875 42.4235 36.405 42.3072 36.6734 42.1122C36.9419 41.9172 37.1507 41.6512 37.2763 41.3442C37.402 41.0371 37.4396 40.7011 37.3849 40.3738L36.1807 33.3592Z" fill="#EEECE3"/>
</svg>
