<svg width="52" height="52" viewBox="0 0 52 52" fill="none" xmlns="http://www.w3.org/2000/svg">
<path fill-rule="evenodd" clip-rule="evenodd" d="M27.1504 8.69772L14.6064 15.2828C14.5912 15.2905 14.5785 15.3023 14.5697 15.3169C14.5609 15.3315 14.5564 15.3482 14.5566 15.3653V27.5607C14.5566 31.4904 16.3129 34.8705 19.5285 37.1292L27.1402 42.4759C27.1558 42.4871 27.1745 42.4931 27.1937 42.4931C27.2129 42.4931 27.2316 42.4871 27.2472 42.4759L34.8589 37.1292C38.0744 34.8705 39.8308 31.4904 39.8308 27.5607V15.3653C39.831 15.3482 39.8264 15.3315 39.8176 15.3169C39.8088 15.3023 39.7961 15.2905 39.781 15.2828L27.2369 8.69772C27.2236 8.6905 27.2087 8.68672 27.1936 8.68672C27.1785 8.68672 27.1637 8.6905 27.1504 8.69772ZM23.0147 45.6203C23.1934 45.6601 23.3493 45.7686 23.4486 45.9224C23.5479 46.0763 23.5827 46.263 23.5454 46.4422C23.5081 46.6215 23.4018 46.7789 23.2494 46.8803C23.097 46.9818 22.9108 47.0192 22.731 46.9844C16.6747 45.7218 11.419 41.9691 8.27208 36.5196L8.27094 36.5203C5.65617 31.9913 4.75678 26.7146 5.70682 21.6108C5.71441 21.57 5.69538 21.5306 5.65867 21.5113C5.62196 21.4921 5.5788 21.4987 5.54957 21.528L4.14453 22.933C4.01296 23.0611 3.83625 23.1322 3.65263 23.131C3.46902 23.1298 3.29328 23.0563 3.16344 22.9264C3.0336 22.7966 2.96011 22.6209 2.95888 22.4372C2.95764 22.2536 3.02876 22.0769 3.15684 21.9453L6.60164 18.5005C6.69031 18.4118 6.80127 18.3485 6.92284 18.3175C7.04442 18.2864 7.17212 18.2887 7.2925 18.3241C7.41288 18.3595 7.52151 18.4267 7.60694 18.5186C7.69237 18.6105 7.75146 18.7237 7.77798 18.8463L7.7785 18.8485L9.03024 23.5201C9.07418 23.6975 9.04671 23.8851 8.95375 24.0425C8.86079 24.1999 8.70977 24.3146 8.53317 24.3618C8.35656 24.409 8.16849 24.3849 8.00941 24.2949C7.85033 24.2049 7.73294 24.056 7.68251 23.8803L7.2117 22.1234C7.20634 22.1028 7.19402 22.0847 7.17683 22.0721C7.15964 22.0595 7.13863 22.0533 7.11737 22.0544C7.09616 22.0553 7.07589 22.0634 7.05998 22.0775C7.04407 22.0916 7.03348 22.1107 7.03001 22.1316C6.21902 26.8287 7.074 31.6601 9.47692 35.822L9.47578 35.8227C10.9951 38.4225 12.887 40.4983 15.1882 42.1637C17.5389 43.865 20.2132 45.0347 23.0147 45.6203ZM11.9386 11.9621C11.8777 12.0301 11.804 12.0856 11.7217 12.1251C11.6393 12.1647 11.55 12.1877 11.4588 12.1928C11.3676 12.1979 11.2763 12.1849 11.1901 12.1547C11.1039 12.1245 11.0245 12.0776 10.9564 12.0167C10.8884 11.9558 10.8329 11.882 10.7934 11.7997C10.7538 11.7174 10.7308 11.6281 10.7257 11.5369C10.7206 11.4457 10.7336 11.3544 10.7638 11.2682C10.794 11.182 10.8409 11.1026 10.9018 11.0345C18.8398 2.16007 32.3915 1.27711 41.3885 8.98112C41.4035 8.99426 41.4224 9.00217 41.4423 9.00363C41.4622 9.00509 41.4821 9.00004 41.4988 8.98923C41.5158 8.97876 41.5288 8.96308 41.5361 8.94455C41.5433 8.92602 41.5443 8.90564 41.539 8.88648L41.0236 6.963C40.9796 6.78556 41.0071 6.59796 41.1001 6.44056C41.193 6.28316 41.344 6.16854 41.5206 6.12135C41.6972 6.07415 41.8853 6.09816 42.0444 6.18821C42.2035 6.27825 42.3209 6.42714 42.3713 6.60284L43.6322 11.3085C43.7707 11.8265 43.295 12.3046 42.7697 12.1602L38.0726 10.9016C37.9836 10.8784 37.9 10.8379 37.8267 10.7823C37.7535 10.7267 37.6919 10.6571 37.6456 10.5777C37.5993 10.4982 37.5692 10.4103 37.557 10.3192C37.5448 10.228 37.5507 10.1353 37.5744 10.0465C37.5982 9.95762 37.6393 9.87434 37.6953 9.80142C37.7514 9.72851 37.8213 9.66739 37.9011 9.62161C37.9809 9.57582 38.0689 9.54626 38.1601 9.53463C38.2514 9.523 38.344 9.52953 38.4327 9.55384L40.1932 10.0256C40.2139 10.0313 40.2359 10.0296 40.2554 10.0208C40.275 10.0121 40.2909 9.99682 40.3004 9.97764C40.3102 9.95886 40.3132 9.93731 40.3089 9.91659C40.3047 9.89586 40.2935 9.87722 40.2771 9.86377C31.8518 2.84137 19.3014 3.72881 11.9386 11.9621ZM46.6248 19.1976C46.5961 19.1104 46.5848 19.0184 46.5918 18.9269C46.5987 18.8354 46.6236 18.7461 46.6651 18.6643C46.7066 18.5824 46.7638 18.5095 46.8335 18.4498C46.9032 18.3902 46.9841 18.3448 47.0713 18.3164C47.1586 18.2881 47.2506 18.2772 47.3421 18.2845C47.4336 18.2917 47.5228 18.317 47.6045 18.3588C47.6862 18.4006 47.7588 18.4582 47.8182 18.5281C47.8776 18.5981 47.9227 18.6791 47.9507 18.7665C48.9049 21.6694 49.2508 24.767 48.9327 27.8496C48.0679 36.2275 42.4212 43.3928 34.4852 46.1945C34.4663 46.2009 34.45 46.2134 34.4388 46.2299C34.4276 46.2464 34.422 46.2661 34.423 46.286C34.4237 46.3059 34.4307 46.325 34.4432 46.3405C34.4556 46.356 34.4727 46.3671 34.4919 46.372L36.4128 46.8867C36.5885 46.9372 36.7374 47.0545 36.8275 47.2136C36.9175 47.3727 36.9415 47.5608 36.8943 47.7374C36.8471 47.914 36.7325 48.065 36.5751 48.158C36.4177 48.2509 36.2301 48.2784 36.0527 48.2345L31.347 46.9736C30.8235 46.8335 30.6586 46.1809 31.0337 45.8064L31.0332 45.8059L34.478 42.3611C34.6096 42.233 34.7863 42.1619 34.9699 42.1631C35.1535 42.1643 35.3293 42.2378 35.4591 42.3677C35.5889 42.4975 35.6624 42.6732 35.6637 42.8568C35.6649 43.0405 35.5938 43.2172 35.4657 43.3487L34.1801 44.6343C34.1649 44.6493 34.1554 44.669 34.1531 44.6903C34.1509 44.7115 34.1561 44.7328 34.1678 44.7507C34.1791 44.7686 34.1963 44.782 34.2164 44.7888C34.2365 44.7955 34.2584 44.7951 34.2782 44.7877C41.5784 42.0988 46.747 35.4558 47.5466 27.7079C47.8445 24.8225 47.5197 21.9203 46.6248 19.1976ZM27.1504 12.616C27.1637 12.6088 27.1785 12.605 27.1936 12.605C27.2087 12.605 27.2236 12.6088 27.2369 12.616L36.8543 17.6647C36.8695 17.6724 36.8822 17.6842 36.891 17.6988C36.8998 17.7134 36.9044 17.7301 36.9041 17.7472V27.1053C36.9041 30.1248 35.5545 32.7221 33.0837 34.4578L27.2472 38.5576C27.2316 38.5688 27.2129 38.5748 27.1937 38.5748C27.1745 38.5748 27.1558 38.5688 27.1402 38.5576L21.3037 34.4578C18.8329 32.7221 17.4833 30.1248 17.4833 27.1053V17.7472C17.4833 17.7117 17.5017 17.6812 17.5331 17.6647L27.1504 12.616ZM22.3791 26.3999C22.251 26.2683 22.1799 26.0916 22.1811 25.908C22.1823 25.7244 22.2558 25.5486 22.3857 25.4188C22.5155 25.2889 22.6912 25.2154 22.8748 25.2142C23.0585 25.213 23.2352 25.2841 23.3667 25.4122L26.2682 28.3137C26.2857 28.3311 26.3094 28.3409 26.3341 28.3409C26.3588 28.3409 26.3824 28.3311 26.3999 28.3137L33.3862 21.3274C33.5178 21.1993 33.6945 21.1282 33.8781 21.1294C34.0617 21.1306 34.2375 21.2041 34.3673 21.334C34.4971 21.4638 34.5706 21.6395 34.5719 21.8232C34.5731 22.0068 34.502 22.1835 34.3739 22.3151L26.828 29.861C26.697 29.9919 26.5194 30.0655 26.3341 30.0655C26.1489 30.0655 25.9713 29.9919 25.8403 29.861L22.3791 26.3999ZM27.2369 11.0133L38.2734 16.8069C38.2886 16.8146 38.3013 16.8264 38.3101 16.841C38.3189 16.8556 38.3234 16.8724 38.3232 16.8894V27.1053C38.3232 30.587 36.7484 33.6178 33.8993 35.6191L27.2472 40.2918C27.2316 40.303 27.2129 40.309 27.1937 40.309C27.1745 40.309 27.1558 40.303 27.1402 40.2918L20.488 35.6191C17.6391 33.6178 16.0642 30.587 16.0642 27.1053V16.8894C16.0642 16.8539 16.0826 16.8234 16.114 16.8069L27.1504 11.0133C27.1637 11.0061 27.1785 11.0023 27.1936 11.0023C27.2087 11.0023 27.2236 11.0061 27.2369 11.0133Z" fill="#EEECE3"/>
</svg>
