<svg width="53" height="53" viewBox="0 0 53 53" fill="none" xmlns="http://www.w3.org/2000/svg">
<path d="M21.3005 27.9973C21.3005 25.1298 23.6331 22.7972 26.5006 22.7972C29.3676 22.7972 31.6996 25.1298 31.6996 27.9973C31.6996 30.8648 29.367 33.1974 26.5001 33.1974C23.6331 33.1974 21.3005 30.8648 21.3005 27.9973ZM42.3896 28.9585C42.2473 28.5825 42.0318 28.2386 41.7554 27.9468C41.479 27.655 41.1473 27.421 40.7797 27.2586C40.3895 27.0823 39.9662 26.9914 39.5381 26.9919C38.9494 26.9902 38.3731 27.1608 37.8802 27.4825C37.3872 27.8043 36.9992 28.2632 36.7638 28.8028C35.8752 30.78 34.435 32.4588 32.616 33.6379C30.7954 34.8195 28.6705 35.4463 26.5001 35.4421C24.3 35.4421 22.1861 34.8188 20.3835 33.6374C18.5655 32.4592 17.1257 30.7817 16.2368 28.8061C15.9976 28.2671 15.6074 27.8089 15.1133 27.4871C14.6191 27.1652 14.0424 26.9934 13.4527 26.9925C13.0232 26.9925 12.6036 27.0819 12.2044 27.2591C11.839 27.4229 11.5097 27.6576 11.2356 27.9496C10.9615 28.2416 10.7481 28.585 10.6078 28.9601C10.4644 29.3335 10.3965 29.7316 10.4079 30.1314C10.4194 30.5312 10.51 30.9248 10.6746 31.2894C12.0339 34.3491 14.2555 36.9464 17.0677 38.7635C17.436 38.9937 17.8666 39.2559 18.3419 39.5082V48.5928C18.3421 48.9176 18.4712 49.2291 18.7009 49.4588C18.9306 49.6886 19.2421 49.8177 19.567 49.8178H33.432C33.7569 49.8175 34.0685 49.6884 34.2983 49.4588C34.5282 49.2291 34.6576 48.9177 34.6582 48.5928V39.5071C35.0897 39.2755 35.5113 39.026 35.9219 38.759C38.739 36.9475 40.9647 34.3516 42.325 31.291C42.4901 30.926 42.5808 30.5317 42.5919 30.1312C42.603 29.7308 42.5342 29.3321 42.3896 28.9585ZM25.8431 20.6877C26.0131 20.8577 26.2527 20.9555 26.5001 20.9555C26.7474 20.9555 26.987 20.8577 27.1565 20.6882L30.3956 17.4486C30.6391 17.2066 30.8317 16.9184 30.9623 16.6009C31.0928 16.2834 31.1586 15.943 31.1558 15.5997C31.1558 15.2624 31.0886 14.9285 30.9581 14.6174C30.8275 14.3064 30.6363 14.0246 30.3956 13.7883C29.9053 13.2981 29.2561 13.0281 28.566 13.0281C27.8758 13.0281 27.226 13.2981 26.7363 13.7883L26.5001 14.0241L26.2643 13.7883C26.0237 13.5465 25.7375 13.3548 25.4223 13.2243C25.1071 13.0938 24.7692 13.0271 24.4281 13.0281C24.0894 13.0262 23.7538 13.0922 23.4411 13.2222C23.1283 13.3522 22.8448 13.5436 22.6073 13.785C22.3656 14.0215 22.1735 14.3039 22.0423 14.6156C21.9111 14.9273 21.8434 15.2621 21.8432 15.6002C21.8405 15.9435 21.9064 16.2839 22.0369 16.6014C22.1675 16.9188 22.3601 17.2071 22.6035 17.4492L25.8431 20.6877ZM26.5001 10.7872C26.6465 10.7872 26.7869 10.729 26.8904 10.6255C26.994 10.5219 27.0521 10.3815 27.0521 10.2351V3.72493C27.0521 3.57851 26.994 3.43809 26.8904 3.33455C26.7869 3.23102 26.6465 3.17285 26.5001 3.17285C26.3536 3.17285 26.2132 3.23102 26.1097 3.33455C26.0061 3.43809 25.948 3.57851 25.948 3.72493V10.2351C25.948 10.3815 26.0061 10.5219 26.1097 10.6255C26.2132 10.729 26.3536 10.7872 26.5001 10.7872ZM35.6773 13.2489C35.8042 13.3219 35.9549 13.3414 36.0962 13.3033C36.2375 13.2652 36.3579 13.1726 36.4309 13.0458L39.67 7.41175C39.743 7.2848 39.7626 7.13406 39.7244 6.99268C39.6863 6.8513 39.5935 6.73087 39.4666 6.65788C39.3396 6.58489 39.1889 6.56531 39.0475 6.60347C38.9061 6.64162 38.7857 6.73437 38.7127 6.86132L35.4736 12.4953C35.4007 12.6223 35.3812 12.773 35.4194 12.9143C35.4576 13.0556 35.5504 13.176 35.6773 13.2489ZM42.855 20.2394C42.9488 20.2394 43.0438 20.2157 43.1305 20.1654L48.7634 16.9103C48.8901 16.8371 48.9826 16.7166 49.0204 16.5752C49.0582 16.4338 49.0384 16.2832 48.9652 16.1565C48.8919 16.0297 48.7714 15.9373 48.63 15.8994C48.4886 15.8616 48.338 15.8815 48.2113 15.9547L42.5784 19.2098C42.4729 19.2704 42.3905 19.3642 42.3439 19.4765C42.2973 19.5889 42.2891 19.7135 42.3207 19.831C42.3522 19.9484 42.4217 20.0522 42.5184 20.126C42.615 20.1999 42.7333 20.2398 42.855 20.2394ZM51.8992 28.572H45.3896C45.2432 28.572 45.1027 28.6302 44.9992 28.7337C44.8957 28.8372 44.8375 28.9777 44.8375 29.1241C44.8375 29.2705 44.8957 29.4109 44.9992 29.5145C45.1027 29.618 45.2432 29.6762 45.3896 29.6762H51.8992C52.0456 29.6762 52.186 29.618 52.2896 29.5145C52.3931 29.4109 52.4513 29.2705 52.4513 29.1241C52.4513 28.9777 52.3931 28.8372 52.2896 28.7337C52.186 28.6302 52.0456 28.572 51.8992 28.572ZM48.7634 41.3533L43.1305 38.0982C43.0676 38.0593 42.9976 38.0335 42.9246 38.0221C42.8515 38.0108 42.777 38.0143 42.7053 38.0323C42.6336 38.0503 42.5663 38.0826 42.5073 38.1271C42.4484 38.1716 42.3989 38.2275 42.362 38.2915C42.325 38.3555 42.3012 38.4263 42.2921 38.4996C42.283 38.573 42.2887 38.6474 42.3089 38.7185C42.3291 38.7896 42.3633 38.8559 42.4096 38.9135C42.4559 38.9711 42.5133 39.0188 42.5784 39.0539L48.2113 42.3089C48.274 42.3452 48.3433 42.3687 48.4152 42.3782C48.487 42.3877 48.56 42.3829 48.63 42.3642C48.7 42.3454 48.7656 42.3131 48.8231 42.269C48.8806 42.2249 48.9289 42.1699 48.9652 42.1072C49.0014 42.0444 49.0249 41.9751 49.0344 41.9033C49.0439 41.8314 49.0391 41.7584 49.0204 41.6884C49.0017 41.6184 48.9693 41.5528 48.9252 41.4953C48.8811 41.4378 48.8261 41.3895 48.7634 41.3533ZM9.85364 38.0988L4.23564 41.3538C4.10891 41.4272 4.01652 41.5479 3.97878 41.6894C3.94104 41.8308 3.96105 41.9815 4.03441 42.1083C4.10776 42.235 4.22846 42.3274 4.36994 42.3651C4.51142 42.4029 4.6621 42.3828 4.78883 42.3095L10.4068 39.0544C10.4696 39.0181 10.5246 38.9698 10.5686 38.9122C10.6127 38.8546 10.645 38.7889 10.6637 38.7189C10.6824 38.6488 10.6871 38.5758 10.6775 38.5039C10.668 38.432 10.6444 38.3627 10.6081 38.3C10.5717 38.2372 10.5234 38.1823 10.4658 38.1382C10.4083 38.0941 10.3426 38.0618 10.2725 38.0431C10.2025 38.0244 10.1294 38.0197 10.0576 38.0293C9.98568 38.0388 9.91639 38.0624 9.85364 38.0988ZM8.16316 29.1241C8.16316 28.9777 8.105 28.8372 8.00146 28.7337C7.89792 28.6302 7.7575 28.572 7.61108 28.572H1.10091C0.95449 28.572 0.814065 28.6302 0.71053 28.7337C0.606994 28.8372 0.548828 28.9777 0.548828 29.1241C0.548828 29.2705 0.606994 29.4109 0.71053 29.5145C0.814065 29.618 0.95449 29.6762 1.10091 29.6762H7.61108C7.7575 29.6762 7.89792 29.618 8.00146 29.5145C8.105 29.4109 8.16316 29.2705 8.16316 29.1241ZM4.23564 16.9098L9.85364 20.1649C9.91639 20.2012 9.98568 20.2248 10.0576 20.2343C10.1294 20.2439 10.2025 20.2392 10.2725 20.2205C10.3426 20.2018 10.4083 20.1695 10.4658 20.1254C10.5234 20.0814 10.5717 20.0264 10.6081 19.9636C10.6444 19.9009 10.668 19.8316 10.6775 19.7597C10.6871 19.6879 10.6824 19.6148 10.6637 19.5448C10.645 19.4747 10.6127 19.409 10.5686 19.3514C10.5246 19.2939 10.4696 19.2455 10.4068 19.2092L4.78938 15.9541C4.66265 15.8807 4.51194 15.8606 4.37041 15.8983C4.22888 15.936 4.10811 16.0284 4.03468 16.1551C3.96125 16.2818 3.94117 16.4325 3.97886 16.5741C4.01655 16.7156 4.10891 16.8364 4.23564 16.9098ZM16.5692 13.0452C16.6052 13.1082 16.6534 13.1634 16.7108 13.2078C16.7683 13.2521 16.834 13.2846 16.904 13.3035C16.9741 13.3224 17.0472 13.3272 17.1192 13.3178C17.1911 13.3083 17.2605 13.2847 17.3233 13.2484C17.3862 13.2123 17.4414 13.1642 17.4857 13.1068C17.53 13.0494 17.5625 12.9838 17.5814 12.9138C17.6002 12.8437 17.6051 12.7707 17.5957 12.6988C17.5863 12.6269 17.5628 12.5576 17.5265 12.4948L14.2874 6.86077C14.2514 6.79786 14.2033 6.74268 14.1458 6.6984C14.0884 6.65413 14.0228 6.62162 13.9528 6.60274C13.8828 6.58387 13.8097 6.579 13.7378 6.58841C13.6659 6.59783 13.5966 6.62134 13.5338 6.6576C13.4709 6.69366 13.4157 6.74177 13.3715 6.79919C13.3272 6.85662 13.2947 6.92221 13.2758 6.99222C13.2569 7.06223 13.2521 7.13528 13.2615 7.20718C13.2709 7.27907 13.2944 7.3484 13.3307 7.4112L16.5692 13.0452Z" fill="#EEECE3"/>
</svg>
