<svg width="49" height="49" viewBox="0 0 49 49" fill="none" xmlns="http://www.w3.org/2000/svg">
<path d="M25.9355 17.4534V14.4033H27.7239C28.5167 14.4033 29.1594 13.7606 29.1594 12.9678C29.1594 12.175 28.5167 11.5322 27.7239 11.5322H21.2761C20.4833 11.5322 19.8406 12.175 19.8406 12.9678C19.8406 13.7606 20.4833 14.4033 21.2761 14.4033H23.0645V17.4534C13.2713 18.113 5.31478 25.4679 3.73309 34.9795H45.267C43.6852 25.4679 35.7287 18.113 25.9355 17.4534ZM17.6982 26.014C15.4225 27.3741 13.6184 29.3553 12.4809 31.7436C12.235 32.2601 11.7203 32.5622 11.1839 32.5622C10.977 32.5622 10.7669 32.5173 10.5676 32.4224C9.85187 32.0815 9.54792 31.2249 9.88881 30.5091C11.2706 27.6078 13.4617 25.2011 16.2252 23.5495C16.9055 23.1427 17.7871 23.3647 18.1939 24.0453C18.6007 24.7259 18.3787 25.6073 17.6982 26.014ZM24.5 24.14C24.0138 24.14 23.524 24.1666 23.0442 24.219C22.9918 24.2248 22.9391 24.2276 22.8864 24.2276C22.1635 24.2276 21.5415 23.6831 21.4611 22.9479C21.375 22.1598 21.9441 21.451 22.7323 21.3649C23.3193 21.3009 23.9095 21.2689 24.5 21.2689C25.2928 21.2689 25.9355 21.9116 25.9355 22.7044C25.9355 23.4972 25.2928 24.14 24.5 24.14ZM48.043 37.8506H0.957031C0.428463 37.8506 0 38.279 0 38.8076C0 41.6618 2.31381 43.9756 5.16797 43.9756H43.832C46.6862 43.9756 49 41.6618 49 38.8076C49 38.279 48.5715 37.8506 48.043 37.8506ZM37.592 10.7666H39.0275V12.2021C39.0275 12.995 39.6703 13.6377 40.4631 13.6377C41.2559 13.6377 41.8986 12.995 41.8986 12.2021V10.7666H43.3342C44.127 10.7666 44.7697 10.1239 44.7697 9.33105C44.7697 8.53825 44.127 7.89551 43.3342 7.89551H41.8986V6.45996C41.8986 5.66716 41.2559 5.02441 40.4631 5.02441C39.6703 5.02441 39.0275 5.66716 39.0275 6.45996V7.89551H37.592C36.7992 7.89551 36.1564 8.53825 36.1564 9.33105C36.1564 10.1239 36.7992 10.7666 37.592 10.7666ZM3.34961 16.2719H4.78516V17.7075C4.78516 18.5003 5.4279 19.143 6.2207 19.143C7.01351 19.143 7.65625 18.5003 7.65625 17.7075V16.2719H9.0918C9.8846 16.2719 10.5273 15.6292 10.5273 14.8364C10.5273 14.0436 9.8846 13.4008 9.0918 13.4008H7.65625V11.9653C7.65625 11.1725 7.01351 10.5297 6.2207 10.5297C5.4279 10.5297 4.78516 11.1725 4.78516 11.9653V13.4008H3.34961C2.5568 13.4008 1.91406 14.0436 1.91406 14.8364C1.91406 15.6292 2.5568 16.2719 3.34961 16.2719Z" fill="#EEECE3"/>
</svg>
