<svg width="65" height="65" viewBox="0 0 65 65" fill="none" xmlns="http://www.w3.org/2000/svg">
<path d="M14.8261 21.903H2.73205C2.68105 21.9027 2.63223 21.8823 2.59626 21.8461C2.56029 21.8099 2.5401 21.761 2.5401 21.71V19.4898C2.54064 19.439 2.5612 19.3905 2.59733 19.3547C2.63346 19.319 2.68224 19.2989 2.73307 19.2989H14.8271C14.8779 19.2989 14.9265 19.319 14.9625 19.3548C14.9985 19.3905 15.0188 19.4391 15.0191 19.4898V21.711C15.0191 21.762 14.9989 21.8109 14.9629 21.8471C14.927 21.8833 14.8781 21.9037 14.8271 21.904L14.8261 21.903ZM62.269 19.2969H50.1719C50.1213 19.2971 50.0729 19.3173 50.0372 19.3531C50.0014 19.3888 49.9812 19.4373 49.981 19.4878V21.709C49.981 21.76 50.0012 21.8089 50.0371 21.8451C50.0731 21.8812 50.1219 21.9017 50.1729 21.902H62.268C62.319 21.9017 62.3678 21.8812 62.4038 21.8451C62.4398 21.8089 62.46 21.76 62.46 21.709V19.4898C62.4594 19.439 62.4389 19.3905 62.4027 19.3547C62.3666 19.319 62.3178 19.2989 62.267 19.2989L62.269 19.2969ZM4.59674 45.5041C4.59674 45.5552 4.61707 45.6043 4.65326 45.6405C4.68945 45.6767 4.73853 45.697 4.78971 45.697H12.7685C12.8195 45.6968 12.8683 45.6763 12.9043 45.6402C12.9402 45.604 12.9604 45.5551 12.9604 45.5041V23.465H4.59674V45.5041ZM52.0396 45.5041C52.0396 45.5552 52.06 45.6043 52.0962 45.6405C52.1323 45.6767 52.1814 45.697 52.2326 45.697H60.2114C60.2624 45.6968 60.3112 45.6763 60.3472 45.6402C60.3831 45.604 60.4033 45.5551 60.4033 45.5041V23.465H52.0396V45.5041ZM47.8715 28.2364H50.4766V29.8005H47.8715V41.7848H50.4766V43.3479H47.8715V45.7021H46.3074V43.3479H43.7024V45.7021H42.1393V43.3479H39.5342V45.7021H37.9712V43.3479H35.3661V45.7021H33.8021V43.3479H31.197V45.7021H29.6339V43.3479H27.0289V45.7021H25.4648V43.3479H22.8617V45.7021H21.2977V43.3479H18.6926V45.7021H17.1296V43.3479H14.5235V41.7838H17.1285V29.7995H14.5235V28.2364H17.1285V26.5911H18.6926V28.2364H21.2977V25.548H22.8607V28.2364H25.4658V24.507H27.0289V28.2374H29.6339V23.464H31.198V28.2374H33.8031V23.464H35.3661V28.2374H37.9712V24.507H39.5353V28.2374H42.1393V25.5491H43.7034V28.2374H46.3085V26.5921H47.8715V28.2364ZM21.2977 29.8005H18.6916V41.7848H21.2977V29.8005ZM25.4658 29.8005H22.8607V41.7848H25.4658V29.8005ZM29.6339 29.8005H27.0289V41.7848H29.6339V29.8005ZM33.8031 29.8005H31.197V41.7848H33.8031V29.8005ZM37.9712 29.8005H35.3661V41.7848H37.9712V29.8005ZM42.1393 29.8005H39.5342V41.7848H42.1393V29.8005ZM46.3085 29.8005H43.7024V41.7848H46.3085V29.8005Z" fill="#EEECE3"/>
</svg>
