<svg width="53" height="53" viewBox="0 0 53 53" fill="none" xmlns="http://www.w3.org/2000/svg">
<path d="M49.4024 42.2645H47.1308V18.3572H49.484C49.9716 18.3572 50.438 18.1452 50.7454 17.7636C51.0634 17.382 51.1906 16.8944 51.0952 16.4068L49.9398 10.3436C49.7914 9.56981 49.113 9.00801 48.3286 9.00801H44.343C43.5586 9.00801 42.8802 9.56981 42.7318 10.3436L41.5658 16.4068C41.4704 16.8944 41.5976 17.382 41.9156 17.7636C42.2336 18.1452 42.6894 18.3572 43.1876 18.3572H45.5408V42.2645H43.2671C43.1897 42.2645 43.1155 42.2782 43.0413 42.2878C43.4777 42.0867 43.8564 41.7791 44.1426 41.3931C44.4825 40.9319 44.6789 40.3808 44.7073 39.8086C44.7357 39.2364 44.5949 38.6685 44.3025 38.1759C44.01 37.6833 43.5789 37.2878 43.0629 37.0387C42.547 36.7897 41.9691 36.6983 41.4015 36.7758C40.7337 36.8648 40.0341 36.9443 39.3186 37.0175V33.3626C39.697 33.3297 40.069 33.2958 40.4295 33.2587C40.7257 33.2298 41.013 33.1407 41.2736 32.9969C41.5343 32.8531 41.7628 32.6576 41.9453 32.4223C42.3173 31.9454 42.4753 31.3517 42.3873 30.7528L41.7184 26.1842C41.6411 25.6247 41.3496 25.1171 40.9052 24.7685C40.4608 24.4198 39.8984 24.2574 39.3366 24.3155C36.5223 24.5974 32.9851 24.7586 29.6312 24.7586C28.3508 24.7586 27.0448 24.7342 25.7612 24.6897C25.458 23.9084 25.0722 23.1527 24.6906 22.417C24.2878 21.6432 23.9168 20.9118 23.6412 20.1804C24.2242 19.4596 24.4362 18.8554 24.2666 18.3678C22.6448 13.672 20.3658 9.56981 17.684 6.50641C17.2327 6.0002 16.6789 5.5957 16.0594 5.31976C15.4399 5.04381 14.7688 4.90271 14.0906 4.90581C12.7126 4.90581 11.3982 5.48881 10.5078 6.51701C7.87897 9.50621 5.64237 13.513 4.02057 18.0922C3.95697 18.2936 3.74497 18.8872 4.81557 20.0638C4.52937 20.8164 4.09477 21.5796 3.64957 22.3746C2.90757 23.6996 2.14437 25.067 1.91117 26.5616C1.87937 26.7736 1.86877 26.9962 1.86877 27.2082C1.86877 28.2152 2.20797 29.2116 2.84397 30.0066C3.23264 30.4972 3.71863 30.9021 4.27137 31.1958C4.82412 31.4895 5.43165 31.6657 6.05577 31.7132C7.64683 31.8298 9.27817 31.8977 10.9233 31.9432L10.3975 40.7539C9.85815 40.6138 9.30333 40.5419 8.74605 40.5398C8.01041 40.5398 7.30445 40.6638 6.64195 40.8843C6.42571 38.9763 6.04093 37.1383 5.33497 35.2642C4.83131 36.6908 4.67151 38.2162 4.86857 39.7162C4.39157 39.1014 3.77677 38.6032 2.96057 38.317C3.74815 39.6357 4.09265 40.9426 4.25377 42.2888C3.56497 42.9125 3.01436 43.6734 2.63737 44.5227C2.26038 45.372 2.06537 46.2908 2.06487 47.22C2.06487 47.6588 2.42103 48.0149 2.85987 48.0149H16.3484C16.836 48.0149 17.3024 47.8135 17.6416 47.4531C17.9702 47.1033 18.1504 46.6264 18.1186 46.1388L17.9129 42.6556C18.5733 42.7362 19.2464 42.8114 19.9418 42.8782V47.221C19.9418 47.4319 20.0255 47.6341 20.1746 47.7832C20.3237 47.9323 20.5259 48.016 20.7368 48.016C20.9476 48.016 21.1498 47.9323 21.2989 47.7832C21.448 47.6341 21.5318 47.4319 21.5318 47.221V43.0128C24.0896 43.2068 26.8265 43.3085 29.6312 43.3085C32.436 43.3085 35.1719 43.2068 37.7296 43.0117V47.22C37.7296 47.4308 37.8134 47.633 37.9625 47.7821C38.1116 47.9312 38.3138 48.0149 38.5246 48.0149C38.7355 48.0149 38.9377 47.9312 39.0868 47.7821C39.2359 47.633 39.3196 47.4308 39.3196 47.22V42.8771C40.2799 42.7872 41.2383 42.6787 42.1944 42.5517C42.2696 42.5411 42.3396 42.5157 42.4138 42.4987C41.8944 42.7976 41.5393 43.352 41.5393 43.9933V46.3677C41.5393 47.3196 42.3141 48.0955 43.2671 48.0955H49.4024C50.3563 48.0955 51.1301 47.3196 51.1301 46.3677V43.9933C51.1301 43.0393 50.3563 42.2645 49.4024 42.2645ZM17.5631 36.7652L17.3056 32.4118L17.3193 32.433C17.6946 32.911 18.232 33.2067 18.8383 33.2661C19.1966 33.3022 19.5676 33.335 19.9418 33.3668V37.0111C19.247 36.9433 18.5533 36.8648 17.861 36.7758C17.7603 36.762 17.6617 36.7683 17.5631 36.7652ZM21.5318 33.4898C24.1309 33.6689 26.9632 33.7686 29.6312 33.7686C32.313 33.7686 35.1432 33.6679 37.7296 33.4866V37.1637C35.0355 37.3775 32.3338 37.4825 29.6312 37.4785C26.7926 37.4785 24.0641 37.3619 21.5328 37.1542L21.5318 33.4898ZM39.4956 25.8959C39.6499 25.88 39.8042 25.9251 39.9257 26.0216C40.0471 26.1181 40.126 26.2583 40.1454 26.4122L40.8142 30.9807C40.8261 31.0623 40.8213 31.1455 40.8001 31.2251C40.7789 31.3048 40.7418 31.3794 40.6909 31.4443C40.6401 31.5092 40.5766 31.5631 40.5043 31.6028C40.4321 31.6424 40.3525 31.667 40.2705 31.6751C37.1138 31.9952 33.2363 32.1775 29.6323 32.1775C26.0537 32.1775 22.1763 31.9973 18.9941 31.6835C18.9119 31.676 18.8322 31.6516 18.7597 31.6121C18.6873 31.5726 18.6237 31.5186 18.5728 31.4536C18.522 31.3885 18.485 31.3138 18.4641 31.234C18.4433 31.1541 18.4389 31.0708 18.4514 30.9892L19.1192 26.4132C19.1401 26.2599 19.2194 26.1206 19.3404 26.0243C19.4614 25.9279 19.6149 25.882 19.769 25.8959C22.631 26.1821 26.2265 26.3475 29.6323 26.3475C33.037 26.3475 36.6325 26.1832 39.4956 25.8959ZM8.74605 42.1298C9.9593 42.1305 11.1327 42.5631 12.056 43.3501C12.9794 44.1371 13.5924 45.2271 13.7853 46.4249H3.71741C3.90839 45.2282 4.51941 44.1386 5.44092 43.3515C6.36243 42.5644 7.53416 42.1313 8.74605 42.1298ZM16.4862 46.372C16.4544 46.3932 16.412 46.4249 16.3484 46.4249H15.3859C15.2576 45.368 14.879 44.3569 14.2815 43.4757C13.684 42.5944 12.8849 41.8685 11.9504 41.3581L12.5091 31.9708C13.0369 31.9782 13.5606 31.9994 14.0906 31.9994C14.6238 31.9994 15.1506 31.9803 15.6806 31.9729L15.9869 37.1669C15.6246 37.3783 15.3127 37.666 15.0729 38.0102C14.8331 38.3544 14.6711 38.7466 14.5983 39.1597C14.5316 39.5482 14.5435 39.9462 14.6335 40.3301C14.7234 40.7139 14.8895 41.0758 15.122 41.3942C15.4294 41.8139 15.8364 42.1224 16.2986 42.3238L16.5286 46.2352C16.5392 46.2988 16.5074 46.3402 16.4862 46.372ZM41.9834 40.9766C38.355 41.462 34.0843 41.7185 29.6312 41.7185C25.1782 41.7185 20.9074 41.462 17.2791 40.9766C17.1034 40.9512 16.9347 40.8907 16.7829 40.7988C16.6311 40.7068 16.4994 40.5853 16.3955 40.4414C16.2917 40.2975 16.2178 40.1342 16.1784 39.9611C16.139 39.7881 16.1348 39.6089 16.1661 39.4342C16.2242 39.0962 16.4116 38.7941 16.6886 38.5919C16.9656 38.3897 17.3104 38.3033 17.6501 38.3509C21.1459 38.8195 25.2905 39.0686 29.6312 39.0686C33.9719 39.0686 38.1165 38.8195 41.6124 38.3509C41.8706 38.3168 42.1331 38.3593 42.3673 38.4731C42.6015 38.5869 42.7971 38.7669 42.9299 38.9909C43.0627 39.215 43.1268 39.473 43.1141 39.7331C43.1015 39.9932 43.0128 40.2439 42.859 40.454C42.647 40.7434 42.3364 40.9289 41.9834 40.9766ZM49.5412 46.3677C49.5412 46.3859 49.5376 46.4039 49.5306 46.4207C49.5236 46.4375 49.5134 46.4527 49.5005 46.4655C49.4876 46.4783 49.4723 46.4885 49.4554 46.4953C49.4386 46.5022 49.4205 46.5056 49.4024 46.5055H43.2671C43.2305 46.5055 43.1955 46.491 43.1696 46.4651C43.1438 46.4393 43.1293 46.4043 43.1293 46.3677V43.9933C43.1293 43.9568 43.1438 43.9217 43.1696 43.8959C43.1955 43.87 43.2305 43.8555 43.2671 43.8555H49.4024C49.4389 43.8555 49.4739 43.87 49.4998 43.8959C49.5256 43.9217 49.5401 43.9568 49.5401 43.9933L49.5412 46.3677Z" fill="#EEECE3"/>
</svg>
