<svg width="41" height="41" viewBox="0 0 41 41" fill="none" xmlns="http://www.w3.org/2000/svg">
<path fill-rule="evenodd" clip-rule="evenodd" d="M13.7709 19.0754C15.8961 14.8934 20.7409 13.9316 23.8398 15.4315C27.2052 17.0578 28.6624 21.684 27.2719 27.1524C26.3323 30.8475 22.8029 35.3302 19.6356 38.4906C19.4768 38.6492 19.2791 38.7632 19.0623 38.8214C18.8456 38.8796 18.6173 38.8798 18.4005 38.822C14.0767 37.6689 8.77914 35.5505 6.11756 32.8206C2.17985 28.7787 1.12752 24.0466 3.22877 20.9545C5.1626 18.105 9.84002 16.5163 13.7709 19.0754ZM10.5421 8.82367C10.6188 8.97436 10.665 9.13875 10.6778 9.30735C10.6907 9.47596 10.6701 9.64544 10.6171 9.80603C10.5642 9.96663 10.48 10.1151 10.3694 10.243C10.2587 10.3709 10.1239 10.4757 9.97261 10.5512C9.82132 10.6267 9.65658 10.6716 9.48788 10.6831C9.31918 10.6947 9.14987 10.6727 8.98969 10.6185C8.82951 10.5643 8.68165 10.479 8.55462 10.3674C8.42759 10.2558 8.32391 10.1201 8.24956 9.96825L7.39539 8.25992C7.31869 8.10922 7.27257 7.94483 7.2597 7.77623C7.24683 7.60762 7.26746 7.43814 7.32041 7.27755C7.37335 7.11695 7.45756 6.96843 7.56818 6.84054C7.6788 6.71265 7.81364 6.60792 7.96493 6.53239C8.11622 6.45685 8.28096 6.41202 8.44966 6.40046C8.61835 6.3889 8.78767 6.41085 8.94785 6.46504C9.10802 6.51923 9.25589 6.60459 9.38292 6.7162C9.50995 6.82781 9.61363 6.96346 9.68798 7.11533L10.5421 8.82367ZM29.6037 32.1766C29.527 32.0259 29.4809 31.8615 29.468 31.6929C29.4552 31.5243 29.4758 31.3548 29.5287 31.1942C29.5817 31.0336 29.6659 30.8851 29.7765 30.7572C29.8871 30.6293 30.022 30.5246 30.1733 30.4491C30.3245 30.3735 30.4893 30.3287 30.658 30.3171C30.8267 30.3056 30.996 30.3275 31.1562 30.3817C31.3164 30.4359 31.4642 30.5213 31.5912 30.6329C31.7183 30.7445 31.822 30.8801 31.8963 31.032L32.7505 32.7403C32.8272 32.891 32.8733 33.0554 32.8862 33.224C32.899 33.3926 32.8784 33.5621 32.8255 33.7227C32.7725 33.8833 32.6883 34.0318 32.5777 34.1597C32.4671 34.2876 32.3322 34.3923 32.1809 34.4679C32.0297 34.5434 31.8649 34.5882 31.6962 34.5998C31.5275 34.6113 31.3582 34.5894 31.198 34.5352C31.0378 34.481 30.89 34.3957 30.763 34.284C30.6359 34.1724 30.5322 34.0368 30.4579 33.8849L29.6037 32.1766ZM6.55148 16.5214C6.40078 16.5981 6.23639 16.6442 6.06779 16.6571C5.89919 16.67 5.7297 16.6493 5.56911 16.5964C5.40852 16.5435 5.25999 16.4592 5.1321 16.3486C5.00421 16.238 4.89948 16.1032 4.82395 15.9519C4.74842 15.8006 4.70358 15.6359 4.69202 15.4672C4.68046 15.2985 4.70241 15.1291 4.7566 14.969C4.81079 14.8088 4.89615 14.6609 5.00776 14.5339C5.11937 14.4069 5.25502 14.3032 5.40689 14.2288L7.11523 13.3747C7.26592 13.298 7.43031 13.2518 7.59892 13.239C7.76752 13.2261 7.937 13.2467 8.0976 13.2997C8.25819 13.3526 8.40671 13.4368 8.5346 13.5475C8.6625 13.6581 8.76723 13.7929 8.84276 13.9442C8.91829 14.0955 8.96313 14.2602 8.97468 14.4289C8.98624 14.5976 8.96429 14.7669 8.9101 14.9271C8.85591 15.0873 8.77055 15.2352 8.65894 15.3622C8.54733 15.4892 8.41168 15.5929 8.25981 15.6672L6.55148 16.5214ZM33.5944 24.4788C33.7451 24.4021 33.9095 24.356 34.0781 24.3431C34.2467 24.3303 34.4162 24.3509 34.5768 24.4038C34.7374 24.4568 34.8859 24.541 35.0138 24.6516C35.1417 24.7622 35.2464 24.8971 35.3219 25.0484C35.3975 25.1997 35.4423 25.3644 35.4538 25.5331C35.4654 25.7018 35.4435 25.8711 35.3893 26.0313C35.3351 26.1915 35.2497 26.3393 35.1381 26.4664C35.0265 26.5934 34.8908 26.6971 34.739 26.7714L33.0306 27.6256C32.8799 27.7023 32.7156 27.7484 32.547 27.7613C32.3783 27.7741 32.2089 27.7535 32.0483 27.7006C31.8877 27.6476 31.7392 27.5634 31.6113 27.4528C31.4834 27.3422 31.3786 27.2073 31.3031 27.056C31.2276 26.9048 31.1827 26.74 31.1712 26.5713C31.1596 26.4026 31.1816 26.2333 31.2358 26.0731C31.29 25.913 31.3753 25.7651 31.4869 25.6381C31.5985 25.511 31.7342 25.4074 31.8861 25.333L33.5944 24.4788Z" fill="#EEECE3"/>
<path fill-rule="evenodd" clip-rule="evenodd" d="M14.1109 15.7558C13.9614 15.3535 13.8337 14.9435 13.7282 14.5275C12.3393 9.05917 13.7948 4.43642 17.1602 2.80838C20.2592 1.30847 25.104 2.27026 27.2292 6.45397C31.16 3.89318 35.8374 5.48363 37.7713 8.33142C39.8708 11.4235 38.8168 16.1522 34.8944 20.1856C33.5807 21.5351 31.6469 22.7515 29.4859 23.7611C29.6464 19.0922 27.7246 15.4125 24.5847 13.892C21.5319 12.416 17.0851 12.8585 14.1109 15.7558Z" fill="#EEECE3"/>
</svg>
