<svg width="569" height="595" viewBox="0 0 569 595" fill="none" xmlns="http://www.w3.org/2000/svg">
<path d="M399.802 148.087C406.856 149.66 413.927 151.233 420.982 152.806C390.909 169.89 356.663 179.499 322.106 180.745C314.771 181.01 307.42 180.901 300.085 180.418C303.854 182.333 307.622 184.249 311.391 186.164C315.752 188.376 320.112 190.587 324.473 192.814C299.664 208.357 274.513 224.179 254.704 245.733C234.894 267.286 220.723 295.677 222.498 324.908C223.884 347.786 232.122 371.956 245.671 390.441C257.492 406.575 273.283 419.19 289.573 430.963C285.15 429.686 280.727 428.363 276.304 426.961C271.087 423.815 266.088 420.342 261.291 416.558C252.01 409.223 243.569 400.766 236.171 391.469C223.822 375.927 214.353 358.033 208.7 339.018C195.385 294.26 202.611 244.3 225.924 203.84C231.92 193.453 238.912 183.719 246.746 174.687C248.864 172.242 251.044 169.859 253.287 167.507C275.027 144.832 302.234 127.281 331.777 116.411C299.758 125.132 270.604 143.042 247.509 166.838C245.22 169.189 242.993 171.603 240.828 174.064C221.268 196.365 206.816 223.105 199.776 251.931C190.308 290.693 194.45 332.274 209.899 369.012C188.579 348.969 169.704 326.341 153.866 301.735C161.746 304.491 169.626 307.232 177.491 309.973C164.954 281.069 160.235 248.816 163.957 217.529C167.275 220.737 170.576 223.946 173.878 227.154C178.425 208.31 184.888 189.918 193.095 172.351C194.341 169.672 195.634 167.025 196.958 164.393C207.407 143.696 220.287 124.244 235.331 106.6C233.664 117.392 231.998 128.184 230.316 138.977C257.663 91.2131 307.747 57.1384 362.223 49.2427C358.314 54.3819 354.421 59.5056 350.512 64.6448C366.879 51.3451 389.149 47.8099 410.236 48.1525C431.322 48.4952 452.315 52.2016 473.386 51.314C494.457 50.4263 516.556 44.1035 530.354 28.1562C510.498 86.4944 459.604 133.246 399.786 148.087H399.802Z" fill="url(#paint0_linear_134_972)"/>
<path d="M300.147 438.501C291.831 435.433 283.857 431.555 276.304 426.977C280.743 428.363 285.15 429.702 289.573 430.979C293.077 433.517 296.612 436.009 300.147 438.501Z" fill="url(#paint1_linear_134_972)"/>
<path d="M100.714 540.85C102.505 538.265 104.342 535.711 106.258 533.203C47.7485 479.008 10.5902 401.95 9.28205 316.109C6.72801 149.458 140.239 11.8199 306.891 9.2814C348.752 8.64289 388.791 16.6009 425.311 31.5047C429.749 31.8006 434.141 32.1744 438.455 32.5325C443.267 32.9375 447.939 33.3268 452.549 33.6227C407.947 10.901 358.205 -0.747898 306.75 0.0307741C223.557 1.29222 145.83 34.8841 87.8968 94.6239C29.9792 154.348 -1.23002 233.056 0.0314257 316.25C1.29287 399.443 34.8848 477.17 94.6089 535.103C96.6179 537.05 98.6425 538.965 100.698 540.85H100.714Z" fill="url(#paint2_linear_134_972)"/>
<path d="M528.376 87.9116C526.367 85.965 524.342 84.0494 522.287 82.165C520.496 84.7502 518.658 87.3043 516.743 89.8272C575.252 144.023 612.41 221.065 613.718 306.905C616.257 473.557 482.746 611.195 316.11 613.733C274.248 614.372 234.225 606.414 197.705 591.526C193.267 591.23 188.89 590.856 184.577 590.498C179.764 590.093 175.077 589.704 170.467 589.408C215.069 612.114 264.795 623.763 316.266 622.984C399.459 621.723 477.186 588.131 535.119 528.406C593.052 468.682 624.246 389.974 622.985 306.781C621.708 223.587 588.131 145.86 528.392 87.9272L528.376 87.9116Z" fill="url(#paint3_linear_134_972)"/>
<path d="M149.599 571.685C170.67 570.797 191.663 574.504 212.749 574.846C233.835 575.189 256.105 571.638 272.473 558.354C268.564 563.493 264.671 568.617 260.762 573.756C315.238 565.861 365.322 531.801 392.669 484.022C391.003 494.815 389.321 505.623 387.654 516.415C417.213 481.78 438.455 440.105 449.123 395.845C452.424 399.053 455.741 402.262 459.043 405.454C462.765 374.167 458.046 341.915 445.51 313.01C453.39 315.751 461.254 318.492 469.135 321.249C453.312 296.643 434.421 274.014 413.117 253.971C428.566 290.725 432.708 332.29 423.224 371.052C407.51 435.308 355.044 489.193 291.224 506.588C335.047 490.47 373.747 459.619 397.076 419.174C420.405 378.715 427.616 328.755 414.301 283.997C408.647 264.982 399.194 247.072 386.829 231.546C379.432 222.248 370.991 213.807 361.709 206.472C349.982 197.206 336.916 189.715 322.853 184.529C342.709 198.545 362.955 212.982 377.329 232.573C390.878 251.059 399.116 275.213 400.518 298.106C402.293 327.338 388.106 355.728 368.297 377.282C348.487 398.835 323.352 414.658 298.528 430.2C306.657 434.327 314.786 438.47 322.916 442.597C281.085 439.762 238.492 449.496 202.019 470.193C209.074 471.766 216.128 473.339 223.183 474.912C163.366 489.753 112.472 536.505 92.6155 594.843C106.414 578.896 128.528 572.573 149.583 571.685H149.599Z" fill="url(#paint4_linear_134_972)"/>
<defs>
<linearGradient id="paint0_linear_134_972" x1="342.118" y1="620.913" x2="342.118" y2="16.4917" gradientUnits="userSpaceOnUse">
<stop stop-color="#A9894B"/>
<stop offset="0.5" stop-color="#FAF6BE"/>
<stop offset="1" stop-color="#A9894B"/>
</linearGradient>
<linearGradient id="paint1_linear_134_972" x1="288.218" y1="620.912" x2="288.218" y2="16.4921" gradientUnits="userSpaceOnUse">
<stop stop-color="#A9894B"/>
<stop offset="0.5" stop-color="#FAF6BE"/>
<stop offset="1" stop-color="#A9894B"/>
</linearGradient>
<linearGradient id="paint2_linear_134_972" x1="226.267" y1="620.913" x2="226.267" y2="16.4919" gradientUnits="userSpaceOnUse">
<stop stop-color="#A9894B"/>
<stop offset="0.5" stop-color="#FAF6BE"/>
<stop offset="1" stop-color="#A9894B"/>
</linearGradient>
<linearGradient id="paint3_linear_134_972" x1="396.734" y1="620.913" x2="396.734" y2="16.4918" gradientUnits="userSpaceOnUse">
<stop stop-color="#A9894B"/>
<stop offset="0.5" stop-color="#FAF6BE"/>
<stop offset="1" stop-color="#A9894B"/>
</linearGradient>
<linearGradient id="paint4_linear_134_972" x1="280.883" y1="620.913" x2="280.883" y2="16.4919" gradientUnits="userSpaceOnUse">
<stop stop-color="#A9894B"/>
<stop offset="0.5" stop-color="#FAF6BE"/>
<stop offset="1" stop-color="#A9894B"/>
</linearGradient>
</defs>
</svg>
