<svg width="18" height="18" viewBox="0 0 18 18" fill="none" xmlns="http://www.w3.org/2000/svg">
<path d="M7.012 17.5785C4.946 17.1125 3.261 16.0608 1.957 14.4235C0.652333 12.7875 0 10.9115 0 8.7955C0 6.6795 0.655333 4.8045 1.966 3.1705C3.27733 1.53516 4.95933 0.485164 7.012 0.0204977C7.17467 -0.024169 7.316 0.00416441 7.436 0.105498C7.556 0.206831 7.616 0.342831 7.616 0.513498C7.616 0.632164 7.58333 0.735164 7.518 0.822498C7.45333 0.909831 7.364 0.965498 7.25 0.989498C5.41667 1.40616 3.91667 2.3395 2.75 3.7895C1.58333 5.2395 1 6.90616 1 8.7895C1 10.6728 1.58333 12.3395 2.75 13.7895C3.91667 15.2395 5.41667 16.1728 7.25 16.5895C7.368 16.6268 7.45833 16.6905 7.521 16.7805C7.58367 16.8705 7.615 16.9728 7.615 17.0875C7.615 17.2515 7.555 17.3855 7.435 17.4895C7.315 17.5935 7.174 17.6232 7.012 17.5785ZM10.989 17.5585C10.839 17.6038 10.7007 17.5768 10.574 17.4775C10.4473 17.3782 10.384 17.2458 10.384 17.0805C10.384 16.9645 10.4123 16.8632 10.469 16.7765C10.5257 16.6892 10.613 16.6268 10.731 16.5895C11.1843 16.4895 11.625 16.3518 12.053 16.1765C12.481 16.0012 12.8883 15.7888 13.275 15.5395C13.3683 15.4835 13.47 15.4635 13.58 15.4795C13.6893 15.4968 13.7847 15.5475 13.866 15.6315C13.9793 15.7495 14.026 15.8828 14.006 16.0315C13.9853 16.1795 13.912 16.3002 13.786 16.3935C13.3533 16.6622 12.902 16.8938 12.432 17.0885C11.962 17.2832 11.4807 17.4398 10.988 17.5585M15.83 13.6685C15.7487 13.5825 15.701 13.4878 15.687 13.3845C15.6723 13.2812 15.6933 13.1828 15.75 13.0895C16 12.7095 16.2127 12.3042 16.388 11.8735C16.5633 11.4428 16.7007 11.0045 16.8 10.5585C16.8247 10.4425 16.882 10.3535 16.972 10.2915C17.062 10.2295 17.1643 10.1985 17.279 10.1985C17.443 10.1985 17.577 10.2585 17.681 10.3785C17.7843 10.4985 17.8137 10.6398 17.769 10.8025C17.6497 11.2958 17.493 11.7772 17.299 12.2465C17.1043 12.7165 16.8727 13.1678 16.604 13.6005C16.5107 13.7265 16.3867 13.7998 16.232 13.8205C16.0773 13.8412 15.9433 13.7898 15.83 13.6685ZM17.282 7.4045C17.1593 7.4045 17.0543 7.3765 16.967 7.3205C16.8803 7.26383 16.8247 7.1765 16.8 7.0585C16.6973 6.6085 16.556 6.17116 16.376 5.7465C16.196 5.32183 15.9873 4.91116 15.75 4.5145C15.6807 4.41716 15.6563 4.31383 15.677 4.2045C15.697 4.0945 15.748 3.99883 15.83 3.9175C15.9433 3.80416 16.0777 3.7555 16.233 3.7715C16.3877 3.78816 16.511 3.8655 16.603 4.0035C16.8723 4.4355 17.104 4.88683 17.298 5.3575C17.4927 5.8275 17.6497 6.30883 17.769 6.8015C17.8137 6.95083 17.7873 7.08883 17.69 7.2155C17.5927 7.34216 17.4567 7.4055 17.282 7.4055M13.275 2.0395C12.8917 1.7895 12.4877 1.57683 12.063 1.4015C11.6383 1.22616 11.2007 1.08883 10.75 0.989498C10.6367 0.964831 10.5473 0.907498 10.482 0.817498C10.4167 0.727498 10.3843 0.625164 10.385 0.510498C10.385 0.346498 10.445 0.212498 10.565 0.108498C10.685 0.00516444 10.826 -0.024169 10.988 0.0204977C11.4867 0.140498 11.97 0.293164 12.438 0.478498C12.906 0.663831 13.3553 0.899498 13.786 1.1855C13.916 1.27883 13.991 1.39983 14.011 1.5485C14.0317 1.6965 13.985 1.83116 13.871 1.9525C13.7903 2.03916 13.6953 2.0925 13.586 2.1125C13.476 2.1325 13.3723 2.10816 13.275 2.0395ZM8.994 13.0975C8.852 13.0975 8.73333 13.0495 8.638 12.9535C8.54267 12.8575 8.49467 12.7388 8.494 12.5975V6.4145L5.754 9.1605C5.644 9.27116 5.525 9.3265 5.397 9.3265C5.269 9.3265 5.15 9.27116 5.04 9.1605C4.93 9.04983 4.874 8.93116 4.872 8.8045C4.87 8.67783 4.92433 8.55883 5.035 8.4475L8.429 5.0475C8.587 4.8895 8.77533 4.8105 8.994 4.8105C9.21267 4.8105 9.40133 4.8895 9.56 5.0475L12.942 8.4305C13.0527 8.5405 13.109 8.66016 13.111 8.7895C13.113 8.91883 13.0587 9.03883 12.948 9.1495C12.8373 9.26016 12.7173 9.31516 12.588 9.3145C12.4587 9.31383 12.3387 9.25883 12.228 9.1495L9.494 6.4145V12.5975C9.494 12.7388 9.446 12.8575 9.35 12.9535C9.254 13.0495 9.13533 13.0975 8.994 13.0975Z" fill="#2E3A23"/>
</svg>
