<svg width="78" height="77" viewBox="0 0 78 77" fill="none" xmlns="http://www.w3.org/2000/svg">
<g clip-path="url(#clip0_134_224)">
<path d="M53.6944 5.6549C53.3854 7.82898 52.1792 8.76897 50.3598 8.26807C50.3271 8.17267 50.3285 8.0715 50.3707 7.9799C50.3999 7.92139 50.4555 7.86046 50.5245 7.83021C50.4573 7.67683 50.3389 7.86581 50.2483 7.80497C49.7237 7.6509 49.3763 7.25459 48.981 6.91584C48.9337 6.36976 48.328 6.92775 48.2093 6.53178C48.1602 6.16933 48.441 5.95484 48.5718 5.669C49.0165 5.32783 49.4454 4.92962 50.0799 5.20925C50.1696 5.28879 50.2396 5.38607 50.2867 5.49344C50.9679 6.10915 51.4753 5.49369 52.0208 5.23637C53.1714 4.3573 53.2122 4.36686 53.6867 5.65826L53.6944 5.6549Z" fill="#C6A565"/>
<path d="M43.9512 20.9319C43.0624 21.1568 42.3267 20.8758 41.9782 20.0595C41.7059 19.4382 42.2556 19.0236 42.6965 18.611C43.409 17.9422 44.2754 17.9374 45.0236 18.2678C45.4749 18.4631 45.7218 19.2143 45.2148 19.7473C44.855 20.1153 44.7945 20.7909 44.1175 20.8315C44.0244 20.7443 44.2027 20.6296 44.0943 20.5492C44.0316 20.6772 43.9765 20.8019 43.9579 20.9472L43.9512 20.9319Z" fill="#D3BA85"/>
<path d="M50.0274 5.65279C50.0729 5.56885 50.1218 5.49259 50.1673 5.40866C50.6401 4.73521 50.0099 4.44455 49.6999 4.05014C49.4519 3.83884 49.099 3.70096 49.1999 3.26363C49.3069 2.63163 49.7887 2.52107 50.3117 2.48383C50.7857 2.08415 50.1404 3.05258 50.6869 2.77656C51.1983 2.52501 52.1545 1.9323 51.9036 3.40441C51.8912 3.50127 52.0288 3.377 52.0825 3.35348C52.3202 3.24929 52.5816 3.34503 52.8184 3.25954C53.8299 3.7945 53.6267 4.77033 53.691 5.64723C53.2183 4.98585 52.7333 4.56757 52.1763 5.57047C51.9617 5.14339 51.7169 5.46095 51.459 5.51912C50.9882 5.63399 50.5494 6.15543 50.0274 5.65279Z" fill="#CDAE6D"/>
<path d="M27.3756 16.841C26.8205 16.9928 26.4898 16.4886 26.0203 16.3561C25.0219 16.0805 25.3285 15.6536 25.9895 15.2634C26.2084 14.8658 26.6686 14.8104 26.9921 14.5681C27.1167 14.4769 27.248 14.4011 27.3861 14.3406C27.5769 14.2752 27.771 14.2176 27.9172 14.0713C28.1103 13.8861 28.2866 13.6625 28.5675 13.5943C28.9118 13.608 29.0797 13.8452 29.2041 14.129C29.267 14.2934 29.2959 14.4636 29.3094 14.6405C29.2487 15.0236 29.365 15.3932 29.4175 15.7634C29.0136 16.2603 28.8741 17.0894 27.9558 16.9341C27.7707 16.8872 27.6339 16.5541 27.3909 16.8343L27.3756 16.841Z" fill="#BE9950"/>
<path d="M49.4231 27.7858C48.3924 27.9998 47.3876 28.1476 47.0914 26.7415C47.0376 26.6188 47.0366 26.4912 47.0696 26.3579C47.2687 25.8318 47.6113 25.508 48.2222 25.5877C48.3224 25.6078 48.4217 25.6466 48.509 25.6997C48.5435 25.7577 48.6011 25.8056 48.663 25.8425C48.7224 25.7068 48.6345 25.5898 48.6378 25.4513C48.62 25.2854 48.6319 25.1248 48.6735 24.9694C48.9331 24.5814 49.3146 24.3045 49.6529 23.9917C49.9699 24.0265 50.2394 24.1826 50.4927 24.3642C50.7062 24.5175 50.8846 24.6953 50.9768 24.9474C50.9653 25.693 50.3737 25.8242 49.8387 26.0221C49.7415 26.0921 49.5995 26.0812 49.5267 26.1862C49.6724 26.1224 49.8239 26.0926 49.9821 26.0781C50.1706 26.1326 50.2992 26.2591 50.3611 26.4423C50.267 27.0412 50.0027 27.5227 49.4231 27.7858Z" fill="#E7D290"/>
<path d="M33.021 41.8028C33.4759 41.7771 33.942 41.7557 34.3358 42.0494C34.6086 42.067 34.7789 42.1844 34.7561 42.4869C34.4782 42.7915 34.1272 42.7625 33.7465 42.7282C33.5187 42.7092 33.7834 42.8126 33.7509 42.8634C34.2344 44.0503 33.2035 43.9718 32.5967 44.256C32.3905 44.328 32.181 44.3924 31.9826 44.4611C31.6201 44.5102 31.4171 44.9649 30.9994 44.8462C30.9078 44.8041 30.8172 44.7432 30.7419 44.6757C30.348 44.2358 30.0353 45.0036 29.6583 44.7482C29.511 44.4746 29.6657 44.3062 29.8713 44.1704C30.2336 43.8288 30.414 43.3017 30.926 43.114C31.9871 43.2615 32.2026 42.0425 33.0243 41.8105L33.021 41.8028Z" fill="#CFB37B"/>
<path d="M57.325 52.0971C57.9646 52.0545 58.0426 52.5872 58.2317 52.998C58.3048 53.3316 58.503 53.6379 58.4322 53.998L58.439 54.0134C58.1256 54.4249 58.1107 55.0166 57.6093 55.2911C56.8766 55.9139 56.2196 55.7082 55.5935 55.114C55.0804 54.2143 55.764 53.8965 56.379 53.6727C57.0434 53.4364 57.1975 53.058 56.9848 52.4473C57.0206 52.2579 57.1174 52.1241 57.3216 52.0895L57.325 52.0971Z" fill="#D6B975"/>
<path d="M30.8621 44.5957C30.9307 44.6479 31.007 44.6968 31.0722 44.7413C31.4684 44.9151 30.9923 45.7271 31.7392 45.6375C31.909 45.6911 32.0351 45.7912 32.1057 45.9523C32.1491 46.4269 32.0032 46.8657 31.8572 47.3045C31.4132 47.3345 31.3664 47.6659 31.3384 47.9982C30.679 47.0986 29.3042 46.7777 29.2708 45.3662C29.2532 44.8253 29.2836 44.3732 29.8679 44.1628C29.7904 44.3614 29.6831 44.5547 29.8333 44.7723C30.2646 45.2141 30.4688 44.3658 30.8588 44.588L30.8621 44.5957Z" fill="#E3CE8F"/>
<path d="M49.4232 27.7858C49.7926 27.3771 49.8061 26.7403 50.3027 26.413C50.1992 25.8641 50.6503 25.6208 50.9224 25.2821C51.1211 24.8385 51.0124 24.3193 51.2596 23.8819C51.49 23.5523 51.5109 23.1409 51.6972 22.7942C51.8414 22.6852 51.9914 22.6104 52.1239 22.8083C52.587 23.5104 52.4973 24.2445 52.1942 24.9716C52.2185 25.5278 51.7326 25.9418 51.7493 26.5014C51.1763 27.301 50.6456 28.1552 49.4232 27.7858Z" fill="#DFC782"/>
<path d="M35.322 45.1552C34.9984 46.0649 34.9113 47.1179 33.9239 47.6602C33.7849 47.7394 33.6392 47.8033 33.4968 47.8748C33.2604 47.7316 33.0555 47.5562 32.9533 47.2811C32.7703 46.8219 32.5116 46.3776 32.6206 45.8544C32.8006 45.4098 32.6617 44.8216 33.2014 44.5303C34.0786 44.2372 34.2706 44.5919 33.9911 45.3727C33.9198 45.5228 34.0448 45.3491 33.959 45.4873C33.9255 45.5568 33.8776 45.6144 33.811 45.671C33.9204 45.7328 33.8905 45.5813 33.9586 45.5698C34.0112 45.2725 34.1002 44.9958 34.3139 44.7741C34.4231 44.5434 34.5001 44.2811 34.7364 44.1319C34.8419 44.1222 34.9464 44.1312 35.0414 44.1811C35.1287 44.2342 35.1997 44.3128 35.251 44.4092C35.2795 44.6618 35.2441 44.915 35.3143 45.1585L35.322 45.1552Z" fill="#DBC288"/>
<path d="M25.5971 15.0147C24.6806 15.4894 24.7079 14.6546 24.9797 14.3984C25.4162 13.9969 25.0986 13.6058 25.2297 13.2375C25.4271 13.0413 25.8635 13.1609 25.8887 12.7385C26.8875 12.1179 27.9432 12.0027 29.0697 12.341C29.4389 12.4535 29.5426 12.6274 29.3903 12.9684C28.8683 13.1332 28.2741 12.7994 27.7824 13.1794C27.4722 13.3062 27.295 13.5484 27.1676 13.8419C26.8664 14.5316 26.0038 14.4616 25.5971 15.0147Z" fill="#CBAB64"/>
<path d="M22.9366 72.6155C22.2774 72.6758 21.7162 72.3549 21.2538 72.009C20.4806 71.4336 20.8993 70.8662 21.4705 70.3964C21.6561 70.3608 21.7908 70.4389 21.8921 70.5865C21.7588 71.3672 22.2646 70.5604 22.3587 70.7751C22.6886 70.7769 22.9589 70.6218 23.2336 70.4558C23.7061 70.1573 23.9633 70.4103 24.1285 70.8498C24.1455 71.1807 23.9179 71.4541 23.9085 71.7873C23.4861 71.9084 23.3886 72.3534 23.1025 72.5976C23.0498 72.6024 22.9927 72.6183 22.94 72.6231L22.9366 72.6155Z" fill="#DCC27D"/>
<path d="M48.9338 46.9889C49.6504 47.4976 49.3065 48.0689 49.0536 48.4723C48.7681 48.9265 48.2562 49.2605 47.6657 48.8519C47.1803 48.5161 47.0299 48.006 47.3869 47.5479C47.7754 47.0577 48.317 46.7289 48.9414 46.9855L48.9338 46.9889Z" fill="#DECA9D"/>
<path d="M37.3016 38.5741C37.9553 38.9184 37.924 39.5355 37.5277 39.8829C37.0571 40.2902 36.4217 40.8429 35.6982 40.1726C35.5739 39.8888 35.3762 39.6464 35.2749 39.3525C35.3614 38.9032 35.658 38.5995 35.969 38.3078C36.3695 38.6168 36.8766 38.3763 37.3016 38.5741Z" fill="#CFB477"/>
<path d="M56.3724 14.8122C56.5599 14.8854 56.4418 15.3669 56.2281 15.5885C55.8749 15.9718 55.5153 16.6323 54.8203 16.2146C54.249 15.8707 54.1469 15.0743 54.3648 14.6954C54.7585 14.0292 55.4651 14.515 56.3691 14.8045L56.3724 14.8122Z" fill="#CDAF6D"/>
<path d="M70.3173 35.8902C70.8306 37.0823 70.0278 37.6078 69.1419 37.9228C68.3668 38.1985 67.6839 37.9127 67.4292 37.0186C68.442 37.3062 67.6536 36.2164 68.132 36.0981C68.2475 35.9653 68.3975 35.8904 68.5769 35.9032C68.6795 35.9496 68.7505 36.0282 68.7822 36.1423C68.9657 36.6653 69.2141 35.9805 69.4146 36.1669C69.7829 36.298 70.0042 35.9268 70.325 35.8868L70.3173 35.8902Z" fill="#E8D59A"/>
<path d="M24.1062 75.4303C22.8287 75.0394 22.4743 74.189 22.9365 72.6151L23.0286 72.5748C23.2893 72.4605 23.5453 72.2935 23.856 72.3768C24.0963 72.4452 24.3039 72.5644 24.479 72.7346C24.6532 72.9234 24.7737 73.1357 24.6626 73.4038C24.5529 73.5707 24.3885 73.6336 24.1938 73.6275C24.0749 73.6065 23.968 73.571 23.8577 73.528C23.6481 73.4461 23.4467 73.4246 23.4579 73.7214C23.4565 73.8226 23.3133 74.0591 23.5473 74.0297C23.6527 74.02 23.7711 73.831 23.9312 73.7792C24.0553 73.7705 24.1819 73.7881 24.2999 73.8278C24.6121 73.9561 24.8534 74.1521 24.9639 74.4877C24.9254 75.0256 24.5712 75.2814 24.1062 75.4303Z" fill="#DCC27D"/>
<path d="M24.0686 70.9216C23.8144 70.7587 23.619 70.2501 23.2386 70.8008C22.9919 71.1557 22.6289 71.1411 22.2721 70.9318C22.2634 70.8076 22.3156 70.739 22.4254 70.7183C22.4791 70.6948 22.5174 70.678 22.5251 70.6746C22.5328 70.6713 22.5404 70.6679 22.5481 70.6645C22.4403 70.794 22.5629 70.594 22.4407 70.7116C22.2312 70.776 22.0332 70.7622 21.8553 70.6482C21.7358 70.5634 21.6054 70.4743 21.4859 70.3895C21.5683 70.2437 21.6507 70.0979 21.7364 69.9597C22.0149 69.8651 22.2224 69.6919 22.3081 69.4075C23.3653 68.6699 23.8295 69.4996 24.3463 70.1782C24.2549 70.4286 24.4104 70.7627 24.083 70.9335L24.0686 70.9216Z" fill="#D6BA76"/>
<path d="M46.6203 21.5357C47.0817 20.9404 47.7744 20.8105 48.4528 20.6687C48.5371 20.6317 48.6043 20.6389 48.6508 20.6825C48.7084 20.7304 48.7295 20.7577 48.7175 20.7721C48.8161 21.2683 48.5133 21.6204 48.28 22.006C48.1507 22.1907 47.9647 22.3087 47.7653 22.3961C47.5659 22.4835 47.3766 22.5939 47.1882 22.6856C46.9811 22.7763 46.7741 22.8671 46.5319 22.8361C45.5823 22.338 46.2619 21.9487 46.6203 21.5357Z" fill="#BF9D59"/>
<path d="M24.9789 74.5637L24.1462 73.9778C24.1206 73.6691 24.6092 73.7201 24.5659 73.3917C24.5926 73.1606 24.4573 73.0187 24.2913 72.8903C24.179 72.5922 24.0292 72.2921 24.4942 72.1432C24.9502 72.2451 25.4062 72.3469 25.8589 72.4411C26.7566 72.6328 25.8766 73.1282 26.0288 73.4546C26.0912 73.7015 26.0027 73.8957 25.8225 74.0478C25.5238 74.0964 25.2698 74.226 25.1347 74.5229C25.0887 74.543 25.0393 74.5555 24.99 74.568L24.9789 74.5637Z" fill="#CEAC60"/>
<path d="M57.062 52.4773C57.6795 53.2398 57.569 53.5716 56.7488 53.8488C56.1687 54.0481 55.3978 54.1665 55.5935 55.1138C54.805 54.6914 54.9907 54.1346 55.384 53.5509C55.4233 53.5154 55.4593 53.4722 55.4909 53.4401C55.7833 53.2937 55.9615 53.0327 56.1828 52.8077C56.294 52.6859 56.4272 52.5726 56.5739 52.4901C56.7426 52.4161 56.9008 52.4017 57.0697 52.474L57.062 52.4773Z" fill="#EEDEA5"/>
<path d="M32.7338 45.8417C32.83 46.3115 33.1304 46.7467 33.0333 47.2554C33.0051 47.2952 32.9768 47.3351 32.9519 47.3825C32.7996 47.5773 32.5896 47.7241 32.5246 47.9721C32.5074 48.0162 32.4935 48.068 32.4762 48.1121C32.077 48.3693 31.7096 48.2195 31.3451 48.0135C30.967 47.4844 31.362 47.3845 31.7494 47.2879C31.8316 46.8496 32.0054 46.4534 32.1504 46.0333C32.2869 45.7815 32.4316 45.5901 32.7338 45.8417Z" fill="#CFB172"/>
<path d="M55.8919 36.2049C55.5031 35.589 55.851 35.2354 56.3399 34.9115C56.7707 34.6221 57.1677 34.631 57.5793 34.9443C58.0806 35.3372 58.0214 35.7654 57.6908 36.2211C57.0957 36.0522 56.4987 35.9207 55.8919 36.2049Z" fill="#F0E2BB"/>
<path d="M52.1315 22.805C52.0184 22.818 51.9129 22.8277 51.7998 22.8407C51.5016 22.9531 51.5565 23.3496 51.2838 23.4782C50.9214 23.6736 50.7362 23.4805 50.6665 23.1545C50.5953 22.7834 50.5155 22.4344 50.1826 22.1963C50.1202 22.0957 50.0919 21.9892 50.0942 21.8694C50.1286 21.6349 50.1443 21.3995 50.4261 21.3125C51.3243 21.4218 52.058 21.7402 52.1359 22.794L52.1315 22.805Z" fill="#EFE0AC"/>
<path d="M70.8801 49.9417C70.1767 49.9848 70.3207 49.4372 70.3651 49.0795C70.4185 48.6172 70.8567 48.5532 71.236 48.5424C71.7734 48.5172 71.9497 48.961 72.0386 49.3518C72.1376 49.7655 71.9964 50.1108 71.4426 50.0152C71.3018 49.6106 71.0723 49.9215 70.8801 49.9417Z" fill="#F0E3B8"/>
<path d="M52.8217 3.26718C52.5237 3.67202 51.8471 3.484 51.6518 4.08153C51.2627 3.54812 52.0804 3.2446 51.7133 2.71981C51.209 2.90423 50.5008 2.74835 50.2861 3.65611C49.9818 3.1495 50.5478 2.85572 50.3074 2.49483C51.396 1.95382 52.1481 2.50187 52.8251 3.27484L52.8217 3.26718Z" fill="#DEC889"/>
<path d="M27.5147 12.9858C28.1358 12.5673 28.7563 12.6063 29.3827 12.9717C29.4935 13.0786 29.6043 13.1854 29.7228 13.2889C29.6958 13.7487 29.8169 14.3173 29.0536 14.2861C28.8804 14.0786 28.7148 13.8678 28.5416 13.6602C28.0459 13.6764 27.5468 13.6848 27.5224 12.9824L27.5147 12.9858Z" fill="#B99551"/>
<path d="M46.6203 21.5358C46.5237 21.9621 45.893 22.4214 46.6877 22.7953C46.7189 22.8457 46.7467 22.8883 46.7856 22.9353C46.8402 23.7067 46.2362 23.7886 45.7175 23.961C45.67 23.9361 45.6148 23.9146 45.5674 23.8897C45.2694 22.8135 45.5178 21.9824 46.6236 21.5435L46.6203 21.5358Z" fill="#D9C082"/>
<path d="M55.8919 36.205C56.5032 35.3886 57.0992 35.3926 57.6909 36.2212C57.0764 37.3224 56.484 36.9512 55.8919 36.205Z" fill="#D9C189"/>
<path d="M70.3173 35.8902C69.9697 35.8688 70.2592 37.2595 69.4737 36.2599C69.2563 36.0351 68.8658 36.4165 68.6901 36.0364C68.44 35.57 68.5472 35.2305 69.0736 35.0547C69.8564 34.7757 70.1678 35.2152 70.314 35.8825L70.3173 35.8902Z" fill="#EDDCAA"/>
<path d="M33.0209 41.8028C32.7776 42.1654 32.5597 42.5443 32.3206 42.8959C32.0337 43.3051 31.482 43.6108 30.926 43.1139C31.4357 42.3786 31.9977 41.7209 33.0243 41.8105L33.0209 41.8028Z" fill="#DCC68F"/>
<path d="M49.1956 3.27469C49.3132 3.54312 49.5353 3.67436 49.8234 3.68521C49.7635 4.42458 49.2771 4.92112 48.8018 5.42197C48.5429 5.49884 48.297 5.54262 48.1113 5.28573C47.9534 5.07151 47.8976 4.83996 48.0044 4.5829C48.1186 3.88378 48.7743 3.66954 49.1898 3.24065L49.1999 3.26365L49.1956 3.27469Z" fill="#C5A25D"/>
<path d="M56.7096 52.5498C56.6085 52.6947 56.5118 52.8285 56.4107 52.9734C55.9806 52.9516 55.6811 53.1651 55.4574 53.51L55.3687 53.558C54.4455 53.2037 55.2186 52.673 55.2591 52.2438C55.3234 51.6397 55.7449 51.6835 56.1775 51.8779C56.6076 51.8997 56.7645 52.1327 56.6986 52.5455L56.7096 52.5498Z" fill="#E8D59B"/>
<path d="M25.5971 15.0146C25.4022 14.5698 25.6287 14.1688 26.0272 14.2228C26.6458 14.2991 26.7697 13.8517 27.062 13.5591C27.2677 13.5695 27.3469 13.7085 27.3714 13.8897C27.3884 14.2205 27.064 14.4816 27.1735 14.8358C26.7799 14.9808 26.3897 15.1335 25.9962 15.2786C25.8657 15.1895 25.7386 15.108 25.6005 15.0223L25.5971 15.0146Z" fill="#E8D697"/>
<path d="M42.8065 55.7256C43.0672 55.4651 43.3946 55.2942 43.6996 55.4897C43.9793 55.6688 44.1008 56.0087 43.8507 56.356C43.5973 56.6956 43.2827 56.6872 42.9897 56.4773C42.7398 56.3034 42.6375 56.0283 42.8065 55.7256Z" fill="#DBC79B"/>
<path d="M45.2918 24.8879C45.1324 24.4823 45.4568 24.2213 45.5597 23.8928C45.5962 23.9134 45.6369 23.923 45.6777 23.9325C45.9845 23.9443 46.3201 23.8339 46.5514 24.1531C46.8346 24.6324 46.784 25.0385 46.2884 25.3471C45.8363 25.4629 45.4953 25.3106 45.2841 24.8912L45.2918 24.8879Z" fill="#CBAB65"/>
<path d="M68.3452 36.105C67.8913 36.2582 68.6645 37.6472 67.429 37.0184C67.083 36.3747 67.5324 35.9401 67.852 35.4801C68.2993 35.4577 68.3829 35.7319 68.3452 36.105Z" fill="#E2CC92"/>
<path d="M48.9809 6.76961C49.6053 6.87999 49.9058 7.4614 50.4324 7.72431C50.4948 7.82496 50.5154 7.93475 50.5021 8.05031C50.4609 8.12321 50.412 8.19947 50.3708 8.27238C49.4552 8.43594 49.3251 7.45073 48.7256 7.14663C48.6766 6.93042 48.7834 6.81959 48.9886 6.76625L48.9809 6.76961Z" fill="#B99658"/>
<path d="M70.2127 39.5108C70.5317 39.8006 70.5189 40.1262 70.3278 40.4202C70.1041 40.7651 69.781 40.7787 69.507 40.4874C69.3218 40.2943 69.0105 40.001 69.4323 39.8162C69.6777 39.7086 69.8342 39.2104 70.2093 39.5031L70.2127 39.5108Z" fill="#D6BD87"/>
<path d="M29.4098 15.7665C28.7657 15.5276 29.0138 15.0715 29.1291 14.6462C29.3894 14.4681 29.4883 13.9219 29.9795 14.2918C29.9918 14.8624 30.1034 15.4717 29.4098 15.7665Z" fill="#C5A15D"/>
<path d="M50.4219 21.3234C50.386 21.5128 50.3502 21.7022 50.3253 21.896C49.8917 21.574 49.1938 21.8799 48.8636 21.2932C48.7623 21.1456 48.6994 20.9812 48.6399 20.8244C48.5746 20.7799 48.5137 20.7243 48.4638 20.673C49.2261 20.5767 49.9271 20.6534 50.4329 21.3277L50.4219 21.3234Z" fill="#D9C186"/>
<path d="M25.6014 74.0441C25.7427 73.8451 25.884 73.646 26.0177 73.4503C26.6014 74.511 26.0014 75.103 25.1732 75.6122C25.1574 75.5552 25.1449 75.5058 25.129 75.4488C25.2505 74.975 25.2176 74.4409 25.5937 74.0475L25.6014 74.0441Z" fill="#D5BA7B"/>
<path d="M51.7492 26.5014C51.5453 26.3074 51.3448 26.121 50.9447 25.7295C52.0305 26.2045 51.5354 24.9495 52.1942 24.9717C52.6098 25.6489 52.0467 26.0328 51.7492 26.5014Z" fill="#F0E4B2"/>
<path d="M53.9119 39.7606C54.1446 39.9787 54.2464 40.19 54.0916 40.3584C53.8463 40.6122 53.5025 40.6623 53.1908 40.4515C52.9298 40.2733 52.9839 40.0211 53.1923 39.8292C53.4357 39.6128 53.7119 39.638 53.9119 39.7606Z" fill="#E6D4AC"/>
<path d="M45.2918 24.8879C45.583 25.1352 45.9321 25.2016 46.2907 25.2273C46.5832 25.2271 46.6835 25.3934 46.6889 25.6562C46.5472 25.9377 46.369 26.1986 46.0977 26.3724C45.5375 26.0328 45.5937 25.3682 45.2918 24.8879Z" fill="#DCC17B"/>
<path d="M68.3454 36.1053C68.1799 35.8945 68.0177 35.6913 67.8555 35.4881C68.1203 34.9241 68.5417 34.8217 69.088 35.0668C68.8263 35.346 68.7378 35.6865 68.7079 36.0562C68.587 36.0726 68.4696 36.0966 68.3564 36.1096L68.3454 36.1053Z" fill="#D4BD8F"/>
<path d="M51.3265 52.3028C51.6205 52.4939 51.6652 52.7212 51.419 52.9936C51.2882 53.1332 51.201 53.3726 50.9502 53.2174C50.6705 53.0382 50.6406 52.7405 50.722 52.4671C50.8206 52.1497 51.0661 52.1884 51.3265 52.3028Z" fill="#D8C18C"/>
<path d="M37.3016 38.574C36.8155 38.6956 36.2438 39.2478 35.969 38.3077C36.4646 38.1454 37.0024 37.7452 37.3016 38.574Z" fill="#FDF9E2"/>
<path d="M24.1061 75.4309C24.3087 75.0587 24.5722 74.7421 24.971 74.5674C25.6117 74.7986 25.1316 75.2467 25.1629 75.5895L25.173 75.6125C24.7828 75.7652 24.4418 75.6129 24.1061 75.4309Z" fill="#C5A463"/>
<path d="M66.6148 42.8789C66.9084 43.1525 66.8333 43.3774 66.6613 43.59C66.5209 43.7703 66.3181 43.85 66.1166 43.6823C65.9041 43.5103 65.7956 43.2836 65.9993 43.039C66.1789 42.8231 66.4172 42.7827 66.6148 42.8789Z" fill="#D9C395"/>
<path d="M46.0943 26.3648C46.1172 26.0622 46.2671 25.8411 46.5509 25.7167C47.073 25.6982 47.045 26.1767 47.2178 26.4667C47.1757 26.5583 47.1335 26.6499 47.0957 26.7305C46.6992 26.7854 46.2424 26.9947 46.102 26.3614L46.0943 26.3648Z" fill="#C8AA6B"/>
<path d="M49.1854 3.25165C49.1898 4.05427 48.3224 4.0778 48 4.5939C48.071 3.85884 48.296 3.26656 49.1854 3.25165Z" fill="#E1C988"/>
<path d="M23.6524 72.4756C23.4622 72.6047 23.256 72.6767 23.0321 72.5829C23.1881 72.1671 23.3188 71.735 23.8615 71.68C23.9064 71.3861 23.9825 71.1425 24.3312 71.4376C24.3241 71.5047 24.3059 71.5676 24.2546 71.6175C24.205 72.0049 24.0824 72.3511 23.6524 72.4756Z" fill="#CAA75D"/>
<path d="M24.3278 71.43C24.1053 71.3812 23.9846 71.5438 23.8581 71.6724C23.3204 71.259 23.8295 71.1273 24.0576 70.9176C24.149 70.6673 24.2328 70.4203 24.3208 70.1623C24.5057 70.5841 24.6421 70.9997 24.3245 71.4223L24.3278 71.43Z" fill="#EFE3B7"/>
<path d="M29.9797 14.2918C29.6959 14.4161 29.4164 14.5294 29.1293 14.6461C29.1053 14.5287 29.0779 14.4036 29.0462 14.2895C29.5121 14.1218 29.4706 13.6098 29.7154 13.2923C29.8795 13.6043 30.0471 13.924 29.972 14.2951L29.9797 14.2918Z" fill="#DBBF73"/>
<path d="M48.1113 5.28584C48.305 5.31066 48.5064 5.33211 48.7001 5.35693C48.925 5.43207 48.9908 5.54039 48.7722 5.70929C48.582 5.98462 48.4029 6.26425 48.2127 6.53958C47.9138 6.14948 48.3268 5.69422 48.1113 5.28584Z" fill="#D5B773"/>
<path d="M48.981 6.76976C48.8919 6.90023 48.8071 7.01967 48.718 7.15013C48.4858 6.99589 48.2024 6.89153 48.2127 6.5396C48.4375 6.4685 48.6667 6.38637 48.8939 6.34165C48.996 6.32433 49.1087 6.39378 49.22 6.41816C49.1429 6.53424 49.0581 6.65368 48.981 6.76976Z" fill="#D5B773"/>
<path d="M56.7096 52.5497C56.5373 52.3235 56.3684 52.1049 56.1885 51.8821C56.6041 51.7457 56.9925 51.7766 57.325 52.0972C57.2359 52.2276 57.1434 52.3504 57.062 52.4775C56.9445 52.5016 56.8271 52.5256 56.7173 52.5463L56.7096 52.5497Z" fill="#DDC58A"/>
<path d="M33.0333 47.2552C33.2501 47.4162 33.5139 47.5383 33.4969 47.8749C33.1555 47.9513 32.8142 48.0277 32.4729 48.1042C32.4484 48.0692 32.4239 48.0342 32.4071 47.9959C32.4668 47.6314 32.6959 47.4031 33.0079 47.2389L33.0333 47.2552Z" fill="#D9C186"/>
<path d="M57.605 55.3022C57.9538 54.9299 57.8239 54.2371 58.427 54.0277C58.4739 54.6563 58.1572 55.0602 57.605 55.3022Z" fill="#D3B879"/>
<path d="M34.6161 42.5846C34.6625 42.3358 34.5008 42.1963 34.3391 42.0569C35.0051 42.0119 35.165 42.4812 35.2703 42.9928C35.22 43.024 35.1697 43.0551 35.127 43.083C34.8912 43.1498 34.6194 43.2597 34.4241 43.0436C34.2432 42.8395 34.3683 42.6658 34.6084 42.588L34.6161 42.5846Z" fill="#E1CB8D"/>
<path d="M23.6524 72.4752C23.8546 72.1855 24.0491 71.8991 24.2546 71.6171C24.3319 71.7935 24.4092 71.9699 24.4865 72.1463C24.4214 72.3942 24.3564 72.6421 24.2836 72.8934C24.0769 72.7555 23.8702 72.6175 23.6524 72.4752Z" fill="#D8BC74"/>
<path d="M50.079 45.9928C50.2162 46.0973 50.3184 46.2262 50.2231 46.4051C50.1072 46.6204 49.9121 46.6968 49.737 46.5267C49.6516 46.4361 49.6179 46.2132 49.6653 46.0919C49.7299 45.9264 49.9178 45.9172 50.0824 46.0005L50.079 45.9928Z" fill="#D5BF8F"/>
<path d="M25.881 12.7418C25.9192 13.2462 25.8206 13.5637 25.2221 13.2409C25.0716 12.5846 25.687 12.9457 25.881 12.7418Z" fill="#F9F4D7"/>
<path d="M65.5835 53.9817C65.7274 54.1015 65.7836 54.2506 65.6484 54.4012C65.5253 54.5375 65.3441 54.562 65.2164 54.4168C65.1531 54.3349 65.1276 54.1723 65.1664 54.0731C65.2396 53.8856 65.4156 53.8907 65.5724 53.9774L65.5835 53.9817Z" fill="#F4ECCB"/>
<path d="M35.1777 44.4503C35.1125 44.4057 35.0439 44.3535 34.971 44.3123C34.9056 43.9753 34.7721 43.6498 34.8836 43.2993C34.9559 43.1305 35.0704 43.0163 35.2593 42.9883L35.267 42.985C35.4719 43.3066 35.476 43.6705 35.4503 44.0291C35.484 44.2521 35.3872 44.3859 35.1744 44.4426L35.1777 44.4503Z" fill="#E2CB90"/>
<path d="M35.1777 44.4507C35.2711 44.3092 35.3679 44.1753 35.4536 44.0372C35.591 44.4341 35.5126 44.7976 35.3186 45.1477C35.0543 44.9619 35.0062 44.7269 35.1777 44.4507Z" fill="#EFE3BF"/>
<path d="M26.0177 73.45C25.8085 73.1395 26.2987 72.7144 25.8479 72.4366C26.5623 72.544 26.5739 72.6121 26.0177 73.45Z" fill="#D8BC74"/>
<path d="M58.4246 54.0016C58.2911 53.6761 57.9754 53.3939 58.224 53.0015C58.6001 53.2756 58.6655 53.6126 58.4246 54.0016Z" fill="#D3B879"/>
<path d="M43.9512 20.9318C43.9049 20.5133 44.0232 20.1781 44.3979 19.8858C44.5843 20.3527 44.1778 20.5309 44.1108 20.8162C44.0739 20.8781 44.027 20.9169 43.9512 20.9318Z" fill="#D2B679"/>
<path d="M70.8801 49.9421C71.0171 49.7541 71.1046 49.4323 71.3967 49.5146C71.6887 49.5969 71.5115 49.8391 71.4425 50.0156C71.2565 49.9874 71.0661 49.9703 70.8801 49.9421Z" fill="#CCB179"/>
<path d="M35.2705 39.3632C35.5492 39.561 35.8543 39.7565 35.6939 40.1833C35.3232 40.0258 35.1945 39.753 35.2705 39.3632Z" fill="#F1E7C2"/>
<path d="M22.2937 69.3955C22.5462 70.0345 22.0715 69.9317 21.722 69.9477C21.8364 69.6873 21.9763 69.4432 22.2937 69.3955Z" fill="#DCC27D"/>
<path d="M27.3756 16.841C27.4828 16.6477 27.6217 16.276 27.6888 16.2832C28.0643 16.3472 27.7476 16.7511 27.9404 16.9408C27.7257 17.0349 27.5545 16.9363 27.3756 16.841Z" fill="#D3B87A"/>
<path d="M48.7689 5.70153C48.7448 5.58408 48.7208 5.46662 48.6967 5.34917C48.9322 4.69744 49.327 4.15876 49.8234 3.68523C50.2674 3.65524 49.9641 4.75723 50.7156 4.28163C51.0881 4.92293 50.2486 4.98912 50.1707 5.41637C49.6104 5.07676 49.2651 5.74918 48.7722 5.7092L48.7689 5.70153Z" fill="#DBC281"/>
<path d="M50.0274 5.6528C50.6527 5.74448 51.1689 5.39944 51.6904 5.1709C52.2426 4.92892 52.0496 5.40658 52.1763 5.57048C51.7575 5.99171 51.1198 5.85065 50.6443 6.20526C50.3601 6.41208 49.9088 6.21672 50.0274 5.6528Z" fill="#DCC17E"/>
<path d="M52.9268 6.07361C52.9329 6.6926 52.5292 6.81462 52.3803 7.16328C51.912 6.49087 52.4278 6.37454 52.9268 6.07361Z" fill="#AA8750"/>
<path d="M50.4985 8.0428C50.4778 7.93301 50.4495 7.82659 50.4321 7.72447C50.5989 7.54169 50.7589 7.34358 51.0687 7.44552C51.043 7.80417 50.6383 7.79867 50.5019 8.05047L50.4985 8.0428Z" fill="#9E7B47"/>
<path d="M27.1859 13.9254C27.1398 13.7993 27.0937 13.6733 27.0509 13.5549C26.9222 13.1359 27.3158 13.1371 27.5147 12.986C27.7259 13.4054 28.2413 13.3715 28.534 13.6638C28.3582 13.9511 28.179 14.2307 27.9956 14.5214C27.7476 14.4563 27.6123 14.1683 27.3308 14.1727C27.2325 14.1153 27.1802 14.0376 27.1859 13.9254Z" fill="#E1CA87"/>
<path d="M27.1859 13.9254C27.2622 13.9743 27.3384 14.0231 27.4147 14.072C27.6276 14.1615 27.6517 14.279 27.4935 14.4397C27.3824 14.5615 27.2746 14.6911 27.1634 14.8129C26.7518 14.4996 26.9914 14.2118 27.1902 13.9144L27.1859 13.9254Z" fill="#F4ECCC"/>
<path d="M27.4892 14.4508C27.4618 14.3256 27.4377 14.2082 27.4103 14.0831C28.0521 13.6281 27.8607 14.2971 27.9956 14.5214C27.8205 14.4975 27.6565 14.478 27.4815 14.4541L27.4892 14.4508Z" fill="#BB954D"/>
<path d="M50.1702 22.1468C50.5954 22.1158 51.0978 21.9688 50.8864 22.738C50.8213 22.9859 50.6159 23.4142 51.2051 23.4028C51.442 23.4636 51.3046 23.7341 51.4485 23.8539C51.491 24.3472 51.3263 24.7851 51.1055 25.2201C51.0298 25.235 50.9746 25.2134 50.9545 25.1674C50.9343 25.1214 50.9209 25.0907 50.9405 25.073C50.7304 24.9273 50.5246 24.7707 50.3145 24.625C50.2869 24.2074 49.8823 24.2019 49.6443 24.0136C49.2395 23.7157 49.001 24.131 48.6951 24.2468C48.5954 24.2904 48.489 24.3188 48.3802 24.3208C48.1044 24.2131 47.9628 23.9734 47.8169 23.7448C47.7032 23.5478 47.6081 23.3518 47.6051 23.1154C47.6405 23.0085 47.6903 22.9135 47.7622 22.8271C48.077 22.4606 48.6427 22.3956 48.8731 21.9198C49.2411 21.6122 49.5571 21.6658 49.7027 22.1231C49.8574 22.6221 50.0248 21.9819 50.1735 22.1544L50.1702 22.1468Z" fill="#D0B168"/>
<path d="M47.2212 26.4743C46.6598 26.5283 46.9269 25.8444 46.5543 25.7243C46.4727 25.5589 46.38 25.3893 46.2984 25.2239C46.6156 24.8838 46.485 24.5022 46.3994 24.1192C46.6705 23.653 47.0088 23.3401 47.5915 23.6059C47.946 23.9351 47.2612 24.5003 47.8583 24.778C47.6864 25.1368 47.7589 25.2604 48.31 25.5583C48.3182 25.6187 48.3307 25.6681 48.3388 25.7285C47.7956 25.7197 47.4861 26.0565 47.2288 26.4709L47.2212 26.4743Z" fill="#BE994F"/>
<path d="M49.4622 24.0571C49.9129 24.8561 48.8666 24.638 48.77 25.0644C48.5859 25.145 48.4195 25.0991 48.2473 25.0191C48.0871 24.9248 47.9782 24.7805 47.9119 24.6084C47.928 24.2905 48.1375 24.2261 48.406 24.2548L48.4775 24.2509C48.7435 24.1069 48.9413 23.8282 49.2933 23.8385C49.4002 23.8739 49.4559 23.9593 49.4655 24.0647L49.4622 24.0571Z" fill="#D3B56C"/>
<path d="M50.9405 25.073C51.0024 25.1099 51.0599 25.1578 51.1055 25.2201C50.8416 25.6192 50.57 26.0216 50.306 26.4207C50.1569 26.3306 50.0111 26.2482 49.8619 26.1582C49.7708 26.1798 49.7156 26.1583 49.7031 26.1089C49.694 26.0672 49.6959 26.0298 49.7199 26.001L50.9515 25.0773L50.9405 25.073Z" fill="#F8F1CF"/>
<path d="M49.4622 24.0571C49.4089 23.9981 49.3556 23.9392 49.2904 23.8946C49.3766 23.674 49.4959 23.6126 49.6648 23.8311C49.8606 24.111 50.7139 23.8468 50.3222 24.6218L49.4655 24.0647L49.4622 24.0571Z" fill="#F3E8BF"/>
<path d="M48.8435 25.4617C48.8561 25.6573 48.8907 25.8616 48.8659 26.0553C48.8402 26.2677 48.8399 26.6427 48.5133 26.5024C48.2639 26.3922 48.445 26.0752 48.5532 25.8632C48.5305 25.6446 48.6417 25.5227 48.8469 25.4694L48.8435 25.4617Z" fill="#DCC177"/>
<path d="M48.8435 25.4616C48.7467 25.5955 48.6466 25.7216 48.5498 25.8555C48.4769 25.8143 48.404 25.7731 48.3235 25.7353L48.3081 25.742C48.3794 25.4456 47.9534 25.1203 48.3536 24.8444C48.4884 24.9225 48.6265 25.0082 48.7613 25.0863C48.7887 25.2114 48.8118 25.3476 48.8392 25.4727L48.8435 25.4616Z" fill="#EBDAA0"/>
<path d="M49.7165 25.9934C49.7587 26.048 49.8119 26.107 49.8695 26.1549C49.6332 26.3041 49.3893 26.4567 49.118 26.6305C49.1288 26.1961 49.3583 26.0315 49.7165 25.9934Z" fill="#D4B361"/>
<path d="M35.2593 42.9886C35.1659 43.1301 35.0691 43.2639 34.9757 43.4054C34.8334 43.6232 34.848 43.9276 34.6074 44.0879C34.4641 44.1781 34.3016 44.2036 34.1385 44.1654C34.0359 44.1189 33.9572 44.0437 33.9059 43.9473C33.8893 43.5341 33.9375 43.1016 33.583 42.7724C33.5393 42.6727 33.4956 42.573 33.4519 42.4733C33.8336 42.6351 34.2511 42.315 34.6281 42.5704C34.4756 43.2863 35.1992 42.6218 35.2713 42.9742L35.2593 42.9886Z" fill="#F0E6BF"/>
<path d="M33.5753 42.7756C34.1403 43.0217 34.0792 43.4873 34.0138 43.9639C33.923 44.4242 33.4761 44.3641 33.1794 44.5215C33.0677 44.5796 32.9579 44.6003 32.8313 44.5826C32.592 44.4955 32.404 44.3585 32.3885 44.0728C32.7708 43.6309 34.0814 44.0348 33.5787 42.7832L33.5753 42.7756Z" fill="#E7D49B"/>
<path d="M31.6199 45.6986C31.5322 45.8742 31.448 46.0574 31.3019 46.3499C30.8643 45.8103 31.1138 45.253 31.0722 44.741C31.3963 44.7087 31.3546 43.9042 31.8981 44.3516C31.9183 44.3977 31.9418 44.4513 31.962 44.4974C31.9809 44.937 31.8225 45.3264 31.6199 45.6986Z" fill="#F3E8BD"/>
<path d="M30.8621 44.5957C30.4929 44.4832 30.3878 45.8915 29.8367 44.7799C30.0676 44.5141 30.0999 44.0246 30.5242 44.0124C30.7683 44.006 30.849 44.3363 30.8621 44.5957Z" fill="#BE9C62"/>
<path d="M32.3808 44.0764C32.5909 44.222 32.8043 44.3753 33.0144 44.521C33.0026 44.8278 32.8753 45.1213 32.5607 45.1129C32.1527 45.0997 31.9914 44.7316 31.8895 44.374L31.8828 44.3586C32.0002 44.1884 32.1454 44.0607 32.3621 44.0755L32.3808 44.0764Z" fill="#F1E5B2"/>
<path d="M31.8972 44.3705C32.2683 44.4455 32.5235 45.4034 33.0221 44.5175C33.1055 44.4992 33.1683 44.5174 33.1995 44.5677C33.2307 44.618 33.2399 44.6598 33.2355 44.6708C32.7725 44.9285 33.2893 45.6071 32.7414 45.8381C32.5103 45.8114 32.3752 45.962 32.2511 46.117C32.1591 46.1573 32.092 46.1501 32.0608 46.0998C32.0372 46.0461 32.0204 46.0078 32.0367 45.9824C31.8952 45.8889 31.7614 45.7922 31.6232 45.7064C31.2197 45.161 31.8701 44.8303 31.9005 44.3782L31.8972 44.3705Z" fill="#E7D49B"/>
<path d="M32.0367 45.9821C32.1019 46.0267 32.1782 46.0756 32.2434 46.1201C32.2317 46.5732 32.0402 46.9497 31.7493 47.2874C31.609 46.8004 31.743 46.376 32.0367 45.9821Z" fill="#EFE3B7"/>
<path d="M51.4485 23.8538C50.9805 23.9126 51.3763 23.5014 51.2051 23.4028C51.3272 23.139 51.3961 22.8163 51.7998 22.8405C51.8249 23.2317 52.0088 23.6722 51.4485 23.8538Z" fill="#C49F56"/>
<path d="M33.2279 44.6743C33.1593 44.6221 33.083 44.5733 33.0144 44.521C33.24 44.1388 33.6989 44.1845 34.0095 43.9753C34.0747 44.0198 34.1399 44.0644 34.2052 44.1089C34.5212 44.3087 34.5502 44.6251 34.5562 44.9516C34.2877 45.0693 34.1387 45.2717 34.1346 45.5752C34.0536 45.6198 33.9932 45.628 33.9543 45.581C33.9155 45.5341 33.8987 45.4957 33.9073 45.4737C33.9746 44.9596 33.9872 44.4878 33.2236 44.6854L33.2279 44.6743Z" fill="#EEE1B6"/>
<path d="M33.9117 45.4627C33.9889 45.4928 34.0661 45.523 34.139 45.5642C34.1184 45.6006 34.0978 45.6371 34.0772 45.6735C33.8923 45.9191 34.0666 46.4004 33.592 46.4438C33.5052 46.4544 33.3383 46.3447 33.3234 46.269C33.2095 45.7795 33.5733 45.6292 33.9117 45.4627Z" fill="#CBAC71"/>
<path d="M34.5321 44.0205C34.6125 43.7659 34.4972 43.3776 34.9681 43.4089C35.1663 43.7152 35.1698 44.0153 34.9633 44.3161C34.8981 44.2715 34.8218 44.2227 34.7566 44.1781C34.6775 44.1854 34.6147 44.1672 34.5758 44.1202C34.537 44.0732 34.5235 44.0426 34.5321 44.0205Z" fill="#D6BC7D"/>
<path d="M34.5321 44.0202C34.6084 44.0691 34.677 44.1213 34.7566 44.1778C34.6872 44.4368 34.6145 44.6881 34.5451 44.947C34.4242 44.6709 34.3108 44.3915 34.1942 44.1043C34.3006 44.076 34.418 44.0519 34.5245 44.0236L34.5321 44.0202Z" fill="#E2CB90"/>
<path d="M22.399 70.7208C22.3544 70.786 22.3056 70.8623 22.261 70.9275C22.1129 70.965 21.9389 71.0687 21.8286 71.0256C21.6267 70.9404 21.7848 70.7797 21.8365 70.6473C22.0445 70.5379 22.221 70.6068 22.399 70.7208Z" fill="#CFAE64"/>
<path d="M68.6935 36.0441C68.9428 36.1542 69.3793 35.6064 69.477 36.2675C69.0259 36.3647 68.9979 36.8432 68.685 37.1723C68.3803 36.7481 68.5182 36.3952 68.6935 36.0441Z" fill="#D8C089"/>
<path d="M23.9266 73.873C23.7579 74.0932 23.5936 74.3023 23.2606 74.7317C23.2736 74.0312 22.9684 73.5432 23.3887 73.1671C23.7303 72.8619 23.9224 73.3629 24.1982 73.4706C24.181 73.6609 24.0267 73.7469 23.9232 73.8653L23.9266 73.873Z" fill="#CEAC60"/>
<path d="M23.9265 73.8728C23.7767 73.5727 24.0836 73.5845 24.2015 73.478C24.319 73.454 24.433 73.4223 24.5582 73.3949C24.7464 73.8244 24.3484 73.8342 24.1419 73.9887C24.069 73.9475 23.9994 73.914 23.9299 73.8805L23.9265 73.8728Z" fill="#C29B48"/>
<path d="M22.399 70.721C22.5652 70.4744 22.7315 70.2279 22.9628 69.8797C22.9881 70.4171 22.8329 70.668 22.399 70.721Z" fill="#DCC27D"/>
<path d="M48.9169 22.1658C48.8098 22.7978 48.1433 22.6328 47.8093 22.9345C47.7814 22.8919 47.757 22.8569 47.7291 22.8142C47.6485 22.6302 47.6205 22.4413 47.6684 22.2375C47.8337 22.1559 48.0034 22.0632 48.1688 21.9816C48.2886 21.8377 48.4333 21.7926 48.616 21.8131C48.7815 21.8777 48.9 21.9812 48.9245 22.1624L48.9169 22.1658Z" fill="#E6D08D"/>
<path d="M48.5475 21.9071C48.419 21.9269 48.2939 21.9543 48.1654 21.974C48.0294 21.4759 48.5994 21.2536 48.6288 20.8201C48.7713 20.8949 48.9027 20.9653 49.0452 21.04C49.0881 21.4508 48.9343 21.7468 48.5475 21.9071Z" fill="#BF9A50"/>
<path d="M47.8059 22.9269C47.7537 22.9955 47.7125 23.0684 47.6602 23.137C47.0843 23.7002 46.9731 23.0084 46.681 22.7799L46.6877 22.7952C46.8127 22.6216 46.9335 22.459 47.1765 22.4713C47.4911 22.4797 47.7088 22.622 47.8016 22.9379L47.8059 22.9269Z" fill="#DCC587"/>
<path d="M47.8092 22.9346C47.6034 22.778 47.39 22.6247 47.1842 22.468C47.3419 22.3898 47.5073 22.3082 47.665 22.2299C47.9292 22.4158 47.996 22.6517 47.8092 22.9346Z" fill="#D2B266"/>
<path d="M25.1631 75.589C25.0373 75.2601 25.2298 74.8649 24.9712 74.5669C25.2803 74.3126 24.7608 73.8363 25.2123 73.6567C25.2814 73.6265 25.4695 73.9097 25.6014 74.0439C25.607 74.5991 25.6347 75.1629 25.1631 75.589Z" fill="#D8BC74"/>
<path d="M55.465 53.5063C55.2894 52.4588 55.754 52.5386 56.4183 52.9697C56.0161 52.9906 56.1293 53.9374 55.465 53.5063Z" fill="#D4B56D"/>
<path d="M33.0079 47.2389C32.8076 47.4912 32.6074 47.7436 32.4071 47.9959C31.9622 47.2309 32.7069 47.4074 33.0079 47.2389Z" fill="#B08E55"/>
<path d="M48.5475 21.9072C48.7123 21.6155 48.8804 21.3316 49.0452 21.04C49.222 21.6939 50.0843 21.3251 50.3143 21.8917C50.2688 21.9756 50.2123 22.0553 50.1668 22.1392C49.7955 22.5853 49.7725 22.5954 49.5603 22.1947C49.3481 21.794 49.1502 21.9265 48.9212 22.1548C48.8017 22.07 48.6713 21.9809 48.5518 21.8961L48.5475 21.9072Z" fill="#EBD99D"/>
<path d="M46.6843 22.7875C47.0947 22.6808 47.2092 23.3803 47.6636 23.1446C47.8339 23.2619 47.9692 23.4038 47.9238 23.6339C47.8265 23.704 47.7167 23.7247 47.5901 23.707C47.0784 23.5199 46.8381 24.1189 46.3917 24.1225C46.1514 24.0541 45.9146 23.9933 45.6777 23.9326C45.9114 23.4645 46.7553 23.5335 46.6767 22.7908L46.6843 22.7875Z" fill="#BA954D"/>
<path d="M47.5978 23.7039C47.7076 23.6832 47.814 23.6548 47.9314 23.6308C48.086 23.8373 48.2515 24.0482 48.406 24.2548C48.255 24.3483 48.0964 24.4453 47.9454 24.5389C47.9618 24.6597 47.9062 24.7206 47.7787 24.7217C46.9831 24.5126 47.5347 24.0606 47.5978 23.7039Z" fill="#B08D4D"/>
<path d="M49.6572 23.8345C49.5287 23.8542 49.4112 23.8783 49.2827 23.898C49.0143 24.0156 48.7459 24.1332 48.4698 24.2542C48.7947 23.9107 48.961 23.143 49.6495 23.8378L49.6572 23.8345Z" fill="#E9D8A1"/>
<path d="M47.771 24.7248C47.83 24.6716 47.8856 24.6106 47.9378 24.5421C48.0793 24.6355 48.2241 24.7365 48.358 24.8333C48.3241 25.1316 48.6302 25.4545 48.3125 25.7309C48.0539 25.4328 46.9622 25.5912 47.771 24.7248Z" fill="#DCC177"/>
</g>
<defs>
<clipPath id="clip0_134_224">
<rect width="59.6611" height="57.4254" fill="white" transform="translate(77.6934 52.5969) rotate(156.336)"/>
</clipPath>
</defs>
</svg>
